 <svg  version="1.0" xmlns="http://www.w3.org/2000/svg"  width="300.000000pt" height="383.000000pt" viewBox="0 0 300.000000 383.000000"  preserveAspectRatio="xMidYMid meet">  <g transform="translate(0.000000,383.000000) scale(0.100000,-0.100000)" fill="#fdfcfc" stroke="none"> <path d="M902 3803 c-27 -70 -39 -139 -22 -128 6 3 10 19 10 35 0 15 9 49 20 74 10 25 15 46 11 46 -5 0 -13 -12 -19 -27z"/> <path d="M1072 3815 c-11 -13 -9 -15 8 -15 11 0 20 7 20 15 0 19 -11 19 -28 0z"/> <path d="M1115 3820 c-7 -12 2 -12 30 0 19 8 19 9 -2 9 -12 1 -25 -3 -28 -9z"/> <path d="M1621 3818 c1 -7 5 -24 9 -38 7 -22 8 -21 9 13 1 20 -3 37 -9 37 -5 0 -10 -6 -9 -12z"/> <path d="M1230 3807 c12 -16 12 -20 -1 -28 -8 -5 -22 -7 -31 -5 -10 2 -29 -5 -42 -15 -14 -11 -38 -26 -53 -34 l-28 -15 33 0 c17 0 32 4 32 8 0 5 37 10 83 11 45 2 89 3 97 4 8 0 50 -3 93 -6 44 -4 77 -4 77 2 0 10 -34 21 -67 21 -13 0 -23 5 -23 10 0 6 -7 10 -15 10 -8 0 -15 5 -15 10 0 6 -9 2 -21 -9 -21 -20 -34 -21 -57 -7 -16 10 -62 -1 -62 -14 0 -6 -7 -10 -15 -10 -25 0 -17 15 16 31 l31 15 -24 19 c-19 17 -20 17 -8 2z"/> <path d="M1040 3779 c0 -6 5 -7 10 -4 6 3 10 1 10 -5 0 -6 5 -8 10 -5 16 10 11 21 -10 22 -11 1 -20 -3 -20 -8z"/> <path d="M1405 3780 c4 -6 15 -8 25 -5 11 3 31 -2 46 -12 15 -10 38 -16 51 -15 13 2 23 -1 23 -7 0 -6 18 -14 40 -17 22 -4 40 -12 40 -18 0 -6 5 -3 11 7 6 10 9 20 7 22 -9 9 -129 36 -137 31 -5 -3 -11 1 -15 9 -4 10 -20 15 -51 15 -30 0 -44 -4 -40 -10z m205 -46 c0 -2 -7 -4 -15 -4 -8 0 -15 4 -15 10 0 5 7 7 15 4 8 -4 15 -8 15 -10z"/> <path d="M1093 3759 c-18 -12 -33 -18 -33 -15 0 3 -11 -4 -25 -16 -31 -27 -32 -48 -2 -48 12 0 39 -3 60 -6 45 -8 51 11 6 20 -40 8 -36 32 10 63 42 29 28 30 -16 2z m-35 -51 c-3 -7 -13 -15 -24 -17 -16 -3 -17 -1 -5 13 16 19 34 21 29 4z"/> <path d="M1512 3704 c-18 -9 -20 -13 -8 -17 8 -3 16 -1 19 6 3 9 9 9 28 0 22 -10 22 -12 4 -13 -15 -1 -10 -6 18 -21 22 -11 37 -23 34 -26 -3 -2 -15 1 -27 7 -18 10 -21 9 -18 -2 3 -7 19 -13 39 -13 39 0 62 -12 53 -27 -4 -6 1 -8 12 -6 20 4 57 -29 48 -43 -3 -5 6 -13 19 -18 13 -5 27 -17 31 -27 6 -15 4 -15 -10 -3 -16 13 -16 12 -7 -6 6 -11 23 -31 38 -45 60 -56 103 -146 96 -202 -1 -9 3 -19 9 -23 5 -3 10 -16 10 -28 -1 -20 -2 -20 -16 6 -8 15 -17 27 -20 27 -2 0 -1 -8 5 -17 5 -10 8 -54 6 -98 -3 -100 -3 -97 -15 -90 -5 3 -8 0 -6 -7 16 -49 16 -68 1 -68 -12 0 -9 -11 15 -45 17 -25 34 -45 37 -45 3 0 1 6 -5 13 -6 7 -12 31 -13 52 -3 65 12 227 24 262 8 25 8 36 -1 45 -15 15 -16 32 -2 23 15 -9 12 21 -4 34 -7 6 -16 27 -19 47 -3 20 -18 51 -32 70 -14 19 -23 34 -19 34 4 0 -1 9 -11 20 -10 11 -23 20 -29 20 -6 0 -3 -7 7 -14 9 -7 17 -17 17 -21 0 -5 -9 0 -19 9 -10 10 -18 25 -16 34 3 22 -23 52 -47 52 -11 0 -16 5 -13 10 4 6 12 7 18 3 7 -3 4 3 -6 14 -9 11 -15 22 -12 25 6 6 -64 68 -77 68 -4 0 -5 -7 -1 -15 4 -12 -4 -10 -30 7 -20 13 -36 28 -37 33 -1 19 -44 31 -68 19z m208 -109 c0 -10 -16 -4 -40 16 l-25 20 33 -16 c17 -8 32 -18 32 -20z"/> <path d="M1305 3696 c33 -8 81 -17 106 -20 26 -4 55 -13 65 -21 17 -14 17 -14 -9 -5 -16 5 -36 10 -45 10 -35 -1 33 -29 70 -30 28 0 40 -6 49 -22 10 -18 9 -20 -6 -14 -9 3 -35 9 -58 13 -22 3 -56 17 -75 30 -19 12 -42 23 -51 23 -9 -1 -2 -7 14 -15 28 -13 29 -13 6 -14 -13 -1 -34 10 -47 24 -18 20 -33 25 -69 25 -25 0 -45 -4 -45 -10 0 -5 -18 -13 -41 -16 -22 -4 -36 -10 -30 -13 6 -4 45 0 86 8 59 12 77 13 87 3 9 -9 5 -12 -20 -12 -32 0 -98 -27 -90 -36 3 -2 19 1 37 7 18 6 51 9 73 6 22 -3 50 -2 62 3 14 5 25 3 35 -7 12 -13 10 -14 -20 -8 -41 9 -34 -2 10 -15 19 -5 29 -5 26 1 -4 5 9 9 27 9 22 0 29 -3 19 -9 -24 -15 6 -22 51 -11 57 13 81 13 73 -1 -4 -6 1 -17 11 -25 18 -13 18 -14 -1 -7 -11 3 -25 10 -32 15 -7 5 -13 4 -16 -4 -4 -10 -6 -10 -6 0 -1 6 -9 12 -18 12 -16 -1 -16 -2 1 -15 11 -8 26 -15 34 -15 13 0 67 -30 140 -78 14 -9 22 -10 22 -3 0 6 -4 11 -9 11 -14 0 -92 53 -86 58 2 3 23 -7 46 -22 22 -15 43 -25 46 -22 8 8 -17 36 -32 36 -19 0 -71 29 -86 47 -12 15 -12 16 4 10 9 -3 17 -2 17 3 0 9 -35 24 -57 25 -15 0 -63 52 -55 59 3 3 -5 6 -17 6 -12 0 -32 5 -43 11 -28 15 -60 20 -143 25 l-70 3 60 -13z"/> <path d="M968 3686 c-20 -15 -25 -31 -6 -20 7 4 8 3 4 -4 -4 -6 -13 -9 -21 -5 -8 3 -15 0 -15 -6 0 -14 30 -14 65 -1 15 6 23 15 20 21 -4 6 -14 8 -22 4 -13 -4 -14 -3 -3 10 15 18 1 19 -22 1z"/> <path d="M1165 3680 c-13 -6 -15 -9 -5 -9 8 0 22 4 30 9 18 12 2 12 -25 0z"/> <path d="M1040 3645 c0 -9 6 -12 15 -9 8 4 15 7 15 9 0 2 -7 5 -15 9 -9 3 -15 0 -15 -9z"/> <path d="M900 3640 c0 -11 -69 -44 -87 -41 -7 1 -13 -8 -13 -21 0 -16 3 -19 8 -10 5 7 18 14 30 17 11 2 30 8 41 14 11 6 31 11 45 11 14 0 28 5 32 12 5 8 2 9 -9 5 -10 -3 -17 -2 -17 2 0 5 -7 11 -15 15 -8 3 -15 1 -15 -4z"/> <path d="M997 3623 c-3 -5 6 -16 20 -26 24 -18 24 -18 21 0 -4 27 -31 43 -41 26z"/> <path d="M1115 3620 c-16 -7 -17 -9 -3 -9 9 -1 20 4 23 9 7 11 7 11 -20 0z"/> <path d="M753 3588 c-18 -18 -33 -44 -35 -58 -2 -14 -14 -45 -26 -69 -12 -25 -22 -53 -22 -63 0 -13 -4 -17 -12 -12 -10 6 -10 4 0 -7 14 -16 16 -53 2 -44 -16 10 -24 -25 -10 -38 10 -9 11 -9 5 2 -4 8 -2 17 6 21 19 12 31 2 21 -18 -5 -9 -8 -29 -7 -44 0 -16 -3 -28 -7 -28 -4 0 -7 -12 -7 -27 1 -22 2 -23 6 -8 3 11 10 23 15 26 5 4 11 24 11 46 2 40 5 43 54 44 21 1 21 3 7 24 -8 13 -22 26 -31 29 -9 4 -13 9 -10 12 3 3 1 19 -3 35 -5 17 -5 31 1 34 8 6 13 -8 10 -27 0 -5 3 -8 9 -8 6 0 10 -8 10 -17 0 -13 3 -14 12 -5 9 9 8 16 -4 29 -8 10 -21 28 -27 41 -12 22 -11 23 7 13 14 -8 19 -7 19 5 0 7 -4 14 -9 14 -5 0 -3 6 4 14 11 12 17 12 41 -1 22 -11 35 -12 55 -4 26 11 26 11 -7 6 -27 -4 -32 -2 -27 11 5 12 1 14 -16 8 -21 -6 -22 -5 -8 11 9 11 10 16 3 11 -8 -4 -13 -2 -13 6 0 8 6 20 13 27 10 11 10 13 0 7 -7 -4 -13 -3 -13 3 0 5 8 15 18 20 9 6 12 11 6 11 -5 0 -24 -15 -41 -32z m9 -30 c-6 -24 -30 -53 -37 -46 -5 4 32 68 39 68 2 0 1 -10 -2 -22z m-62 -186 c0 -15 -2 -15 -10 -2 -13 20 -13 33 0 25 6 -3 10 -14 10 -23z m38 -34 c-6 -16 -48 -18 -48 -1 0 7 11 13 26 13 15 0 24 -5 22 -12z"/> <path d="M1176 3593 c-6 -14 -5 -15 5 -6 7 7 10 15 7 18 -3 3 -9 -2 -12 -12z"/> <path d="M1328 3585 c30 -7 61 -20 70 -30 13 -14 14 -16 2 -11 -8 4 -6 0 4 -8 11 -9 25 -16 32 -16 7 0 15 -8 17 -17 4 -15 5 -15 6 2 0 11 -5 28 -13 37 -16 22 -108 58 -144 57 -18 0 -9 -5 26 -14z"/> <path d="M826 3564 c-3 -7 3 -10 15 -7 26 7 32 19 9 19 -11 0 -22 -6 -24 -12z"/> <path d="M1660 3569 c0 -6 -4 -7 -10 -4 -5 3 -10 1 -10 -4 0 -12 7 -13 34 -2 18 7 18 8 3 14 -9 3 -17 2 -17 -4z"/> <path d="M681 3515 c-12 -31 -21 -61 -21 -68 1 -7 12 17 26 52 13 35 22 66 20 68 -2 3 -13 -21 -25 -52z"/> <path d="M885 3560 c3 -5 8 -10 11 -10 2 0 4 5 4 10 0 6 -5 10 -11 10 -5 0 -7 -4 -4 -10z"/> <path d="M1265 3563 c-11 -3 -29 -12 -40 -20 -19 -14 -19 -15 5 -7 14 4 48 8 75 9 78 4 83 5 60 15 -22 9 -68 11 -100 3z"/> <path d="M1005 3550 c3 -5 11 -10 16 -10 6 0 7 5 4 10 -3 6 -11 10 -16 10 -6 0 -7 -4 -4 -10z"/> <path d="M1479 3541 c13 -10 21 -23 17 -30 -7 -10 9 -15 44 -13 8 0 18 -5 22 -11 11 -18 -44 -26 -57 -9 -9 10 -11 9 -11 -7 0 -13 7 -21 17 -21 10 0 20 -6 22 -12 3 -8 6 -6 6 4 1 14 9 17 39 14 20 -1 49 -8 64 -14 27 -11 46 -32 29 -32 -5 0 -13 5 -16 10 -3 6 -14 10 -23 9 -10 0 -5 -6 14 -16 17 -8 39 -30 47 -47 14 -27 16 -28 16 -8 1 12 -3 22 -9 22 -5 0 -10 11 -10 25 0 17 -9 31 -29 43 -16 9 -51 30 -78 47 -26 16 -66 37 -88 47 -39 18 -40 18 -16 -1z"/> <path d="M820 3536 c0 -2 18 -6 39 -8 22 -2 37 0 35 4 -5 8 -74 11 -74 4z"/> <path d="M920 3536 c0 -2 7 -9 15 -16 13 -11 14 -10 9 4 -5 14 -24 23 -24 12z"/> <path d="M1185 3530 c-3 -5 -1 -10 4 -10 6 0 11 5 11 10 0 6 -2 10 -4 10 -3 0 -8 -4 -11 -10z"/> <path d="M1360 3526 c0 -2 7 -7 16 -10 8 -3 12 -2 9 4 -6 10 -25 14 -25 6z"/> <path d="M931 3482 c13 -15 27 -31 31 -36 4 -5 2 4 -4 22 -7 17 -21 33 -31 36 -17 4 -17 2 4 -22z"/> <path d="M880 3496 c0 -2 8 -10 18 -17 15 -13 16 -12 3 4 -13 16 -21 21 -21 13z"/> <path d="M779 3470 c12 -11 28 -17 35 -12 7 4 3 8 -11 10 -13 2 -23 8 -23 13 0 5 -6 9 -12 9 -7 -1 -2 -9 11 -20z"/> <path d="M1752 3438 c7 -13 11 -30 10 -38 -2 -12 -1 -12 6 -2 7 10 16 3 38 -25 16 -20 34 -49 41 -63 17 -37 15 -8 -2 34 -8 20 -19 36 -24 36 -6 0 -22 18 -38 40 -30 42 -52 55 -31 18z"/> <path d="M890 3441 c0 -6 5 -13 10 -16 6 -3 10 1 10 9 0 9 -4 16 -10 16 -5 0 -10 -4 -10 -9z"/> <path d="M1270 3430 c0 -5 5 -10 11 -10 5 0 7 5 4 10 -3 6 -8 10 -11 10 -2 0 -4 -4 -4 -10z"/> <path d="M1724 3397 c3 -29 21 -77 30 -77 7 0 -6 40 -15 46 -5 3 -9 10 -9 15 0 6 5 7 12 3 8 -5 9 -2 5 10 -4 10 -7 22 -7 27 0 5 -4 9 -9 9 -5 0 -8 -15 -7 -33z"/> <path d="M921 3411 c-8 -6 -9 -11 -3 -15 6 -3 14 -1 17 5 9 14 2 20 -14 10z"/> <path d="M1048 3409 c-5 -15 -51 -18 -60 -4 -5 6 -8 2 -8 -8 0 -14 -5 -17 -20 -12 -16 5 -19 3 -13 -12 3 -10 3 -15 -2 -11 -9 9 -59 -16 -86 -43 -11 -11 -27 -18 -34 -15 -8 3 -15 1 -17 -5 -2 -5 -22 -11 -46 -13 -45 -4 -60 -11 -48 -23 4 -4 10 -3 14 2 11 16 59 15 59 0 0 -8 -4 -12 -9 -9 -7 4 -13 -26 -9 -48 0 -5 -2 -8 -7 -8 -4 0 -8 -15 -9 -32 -3 -68 -29 -182 -42 -186 -16 -5 -14 -22 3 -22 9 0 12 -8 9 -24 -3 -13 -1 -26 5 -29 9 -6 27 83 37 183 5 59 34 150 50 163 6 4 4 11 -5 17 -12 8 -11 10 6 10 12 0 32 10 45 23 33 30 77 49 99 42 11 -4 23 1 32 13 7 11 24 22 38 27 24 7 24 7 5 -9 -17 -13 -17 -15 -4 -16 20 0 43 25 35 39 -3 5 0 12 6 14 8 4 7 6 -4 6 -9 1 -18 -4 -20 -10z"/> <path d="M1090 3411 c0 -6 4 -13 10 -16 6 -3 7 1 4 9 -7 18 -14 21 -14 7z"/> <path d="M1206 3410 c9 -8 53 -7 48 2 -3 4 -16 7 -29 6 -13 -1 -22 -5 -19 -8z"/> <path d="M1315 3400 c20 -22 14 -26 -15 -10 -13 7 -21 7 -25 0 -4 -6 -10 -8 -15 -5 -5 3 -12 0 -15 -5 -5 -8 14 -9 61 -5 37 3 70 8 73 10 2 3 9 1 15 -3 6 -5 22 -5 36 -1 14 4 20 7 13 8 -7 1 -10 9 -7 19 5 14 3 14 -10 -2 -9 -11 -16 -15 -16 -9 0 6 -9 13 -20 16 -11 3 -20 1 -20 -4 0 -5 -11 -9 -25 -9 -14 0 -25 5 -25 10 0 6 -5 10 -12 10 -6 0 -3 -9 7 -20z"/> <path d="M1464 3409 c-4 -7 -3 -10 3 -6 6 4 16 0 22 -7 10 -11 8 -15 -6 -19 -17 -4 -16 -5 2 -12 11 -5 32 -18 47 -29 15 -11 31 -17 34 -13 4 3 -5 12 -20 18 -14 7 -28 20 -31 29 -9 28 -42 54 -51 39z"/> <path d="M1560 3406 c0 -6 14 -12 30 -13 39 -3 39 13 0 19 -17 3 -30 0 -30 -6z"/> <path d="M1140 3394 c0 -8 -11 -15 -27 -15 -25 -2 -25 -2 -5 -6 13 -3 29 0 36 6 8 6 22 8 31 4 12 -4 16 -3 12 4 -11 18 -47 23 -47 7z"/> <path d="M1525 3400 c3 -5 8 -10 11 -10 2 0 4 5 4 10 0 6 -5 10 -11 10 -5 0 -7 -4 -4 -10z"/> <path d="M880 3396 c0 -2 7 -9 15 -16 9 -7 15 -8 15 -2 0 5 -7 12 -15 16 -8 3 -15 4 -15 2z"/> <path d="M1175 3370 l-30 -15 28 -3 c33 -4 40 0 35 20 -2 11 -8 11 -33 -2z"/> <path d="M1555 3360 c10 -11 20 -20 22 -20 2 0 -1 9 -7 20 -6 11 -16 20 -22 20 -6 0 -3 -9 7 -20z"/> <path d="M1771 3374 c0 -5 4 -18 8 -28 6 -17 8 -17 14 -3 3 8 -1 21 -9 27 -8 7 -14 9 -13 4z"/> <path d="M1630 3360 c0 -5 7 -10 16 -10 14 0 14 -3 4 -15 -10 -12 -10 -18 0 -30 7 -9 15 -13 18 -10 3 2 -1 11 -7 19 -8 9 -8 16 -2 20 5 4 17 -4 25 -16 9 -12 16 -18 16 -12 0 18 -40 64 -56 64 -8 0 -14 -4 -14 -10z"/> <path d="M1598 3353 c7 -3 16 -2 19 1 4 3 -2 6 -13 5 -11 0 -14 -3 -6 -6z"/> <path d="M820 3330 c0 -5 5 -10 11 -10 5 0 7 5 4 10 -3 6 -8 10 -11 10 -2 0 -4 -4 -4 -10z"/> <path d="M1575 3309 c-3 -3 2 -12 10 -19 12 -10 15 -10 15 0 0 7 9 2 20 -11 11 -13 19 -18 18 -10 -6 32 -51 61 -63 40z"/> <path d="M1730 3311 c0 -5 5 -13 10 -16 6 -3 10 -2 10 4 0 5 -4 13 -10 16 -5 3 -10 2 -10 -4z"/> <path d="M1800 3289 c11 -36 20 -49 20 -28 0 25 -12 59 -20 59 -5 0 -5 -14 0 -31z"/> <path d="M610 3290 c6 -11 13 -20 16 -20 2 0 0 9 -6 20 -6 11 -13 20 -16 20 -2 0 0 -9 6 -20z"/> <path d="M1830 3291 c0 -6 4 -13 10 -16 6 -3 7 1 4 9 -7 18 -14 21 -14 7z"/> <path d="M1721 3246 c5 -17 9 -42 8 -56 0 -22 -2 -21 -13 10 -7 19 -18 35 -24 35 -6 0 -18 9 -27 20 -19 24 -17 14 10 -37 10 -21 22 -38 27 -38 4 0 8 -9 8 -20 0 -12 7 -20 16 -20 8 0 23 -7 32 -16 11 -12 17 -13 20 -5 2 7 -5 19 -17 28 -18 12 -20 21 -15 49 8 43 -1 81 -20 81 -11 0 -12 -7 -5 -31z"/> <path d="M1776 3253 c-4 -12 -2 -31 3 -42 6 -11 10 -28 9 -38 -3 -33 2 -53 12 -53 7 0 10 19 9 45 -2 25 -7 45 -12 45 -5 0 -7 6 -4 13 2 6 1 21 -3 32 -7 19 -7 19 -14 -2z"/> <path d="M1840 3227 c0 -20 4 -38 8 -41 10 -6 8 61 -2 71 -3 3 -6 -10 -6 -30z"/> <path d="M723 3236 c-6 -8 -9 -16 -6 -19 3 -4 -1 -13 -10 -21 -8 -8 -16 -13 -19 -11 -2 2 -9 -5 -16 -15 -7 -11 -8 -20 -3 -20 5 0 11 6 14 13 2 6 8 9 12 4 5 -4 3 -13 -3 -19 -15 -15 -17 -142 -2 -133 6 3 7 -1 4 -9 -3 -9 -1 -16 5 -16 6 0 11 6 11 14 0 8 3 21 6 30 4 10 1 16 -10 16 -9 0 -13 6 -10 15 4 8 10 12 15 9 5 -3 4 6 -2 20 -12 26 -6 56 11 56 7 0 7 -6 0 -21 -13 -23 -8 -35 10 -24 8 5 10 26 6 62 -4 41 -2 55 9 60 8 3 12 9 9 14 -7 12 -17 11 -31 -5z"/> <path d="M1756 3183 c-4 -9 -2 -21 4 -27 7 -7 10 -2 10 17 0 31 -5 34 -14 10z"/> <path d="M1836 3155 c4 -15 2 -25 -5 -25 -6 0 -8 -7 -5 -15 4 -8 16 -15 28 -15 17 0 19 2 6 11 -10 7 -11 12 -4 15 15 6 6 41 -12 48 -11 4 -13 -1 -8 -19z"/> <path d="M621 3141 c-7 -5 -21 -6 -31 -4 -10 3 -21 0 -24 -6 -11 -17 47 -14 70 4 20 15 8 21 -15 6z"/> <path d="M1845 3077 c-4 -10 -5 -21 -1 -24 10 -10 18 4 13 24 -4 17 -4 17 -12 0z"/> <path d="M1807 3043 c-3 -4 1 -21 8 -38 l13 -30 -3 33 c-3 35 -10 49 -18 35z"/> <path d="M1500 3000 c-12 -8 -9 -10 13 -10 16 0 26 4 22 10 -8 12 -16 12 -35 0z"/> <path d="M1383 2972 c-44 -12 -53 -19 -53 -37 0 -28 -22 -35 -106 -35 l-62 0 3 -47 c2 -30 -6 -75 -22 -127 -34 -105 -67 -139 -148 -156 -144 -30 -216 20 -247 172 -11 54 -11 63 7 96 25 47 96 73 210 78 47 2 70 0 55 -4 -14 -4 -26 -16 -28 -25 -2 -12 1 -15 12 -11 9 3 14 10 11 14 -3 5 4 6 15 3 11 -3 20 -10 20 -17 0 -8 3 -8 8 0 8 12 43 27 39 16 -1 -4 1 -7 4 -7 3 0 14 -7 24 -15 15 -13 17 -13 13 -1 -2 8 -17 24 -32 35 -24 18 -41 21 -134 20 -70 0 -128 -7 -167 -18 -33 -10 -68 -18 -78 -17 -68 1 -86 -44 -39 -94 32 -34 73 -143 66 -177 -4 -20 -3 -21 4 -3 8 18 10 18 27 -8 27 -42 65 -57 141 -57 86 0 137 16 176 54 29 30 30 30 23 6 -10 -31 -46 -80 -59 -80 -6 0 -5 -5 2 -12 17 -17 15 -45 -4 -56 -10 -6 -12 -12 -6 -16 15 -9 34 21 37 58 1 19 12 46 23 61 12 15 22 40 22 55 0 15 9 53 20 85 11 32 20 71 20 86 0 33 29 53 66 46 13 -2 24 0 24 4 0 5 -7 9 -16 9 -8 0 -13 4 -10 9 3 5 14 7 25 4 15 -4 19 -14 19 -53 0 -32 9 -68 31 -112 17 -36 32 -75 34 -86 2 -12 11 -30 20 -40 9 -10 17 -33 17 -50 0 -30 2 -31 20 -20 11 7 16 14 10 16 -8 3 -60 102 -60 115 0 2 21 -6 47 -19 35 -18 62 -24 112 -24 146 1 206 54 232 206 12 72 24 104 38 104 5 0 19 -8 32 -19 21 -17 23 -25 20 -101 -2 -59 1 -80 9 -75 7 4 9 24 7 50 -3 28 0 51 9 62 15 20 19 57 5 48 -14 -8 -51 44 -51 71 0 27 -14 31 -167 40 -109 6 -249 -8 -238 -25 2 -4 -6 -7 -18 -7 -13 1 -21 -4 -19 -12 1 -7 -5 -15 -13 -18 -8 -4 -15 -10 -15 -14 0 -4 28 4 62 17 39 16 80 25 110 24 53 -1 60 5 26 19 -21 8 -21 9 -3 9 54 2 140 -20 162 -41 23 -21 25 -29 21 -103 -7 -157 -66 -218 -213 -218 -54 0 -81 5 -106 19 -35 21 -92 109 -84 132 2 6 -1 12 -7 12 -18 0 -3 94 20 128 16 22 19 32 10 35 -15 5 25 24 92 43 28 8 35 12 20 12 -14 0 -49 -7 -77 -16z m397 -22 c20 0 22 -2 10 -10 -8 -5 -11 -10 -6 -10 10 0 -13 -30 -23 -30 -4 0 -18 14 -31 32 l-23 31 24 -6 c13 -4 35 -7 49 -7z m-472 -75 c-2 -2 -24 -1 -48 3 l-45 7 45 5 c39 4 61 -2 48 -15z m-558 -2 c0 -15 -26 -53 -37 -53 -8 0 -12 4 -8 9 3 5 -2 11 -12 13 -15 3 -15 5 -1 18 12 13 58 23 58 13z"/> <path d="M903 2950 c-32 -13 -29 -17 7 -12 17 2 30 8 30 13 0 11 -8 11 -37 -1z"/> <path d="M985 2950 c-4 -6 8 -10 33 -10 22 0 59 -7 82 -15 52 -18 66 -12 18 8 -48 20 -125 30 -133 17z"/> <path d="M930 2904 c0 -13 31 -35 43 -31 8 4 8 6 -2 6 -11 1 -10 5 5 16 18 14 17 14 -13 15 -18 0 -33 -3 -33 -6z"/> <path d="M877 2886 c-3 -8 -22 -18 -41 -22 -26 -4 -36 -11 -36 -25 0 -18 2 -18 23 -4 19 12 48 21 80 24 4 1 7 6 7 12 0 5 -6 7 -12 3 -9 -5 -9 -2 1 9 11 15 11 17 -2 17 -8 0 -17 -7 -20 -14z"/> <path d="M1445 2885 c-31 -16 -63 -55 -45 -55 5 0 10 5 10 10 0 6 7 10 15 10 8 0 15 4 15 8 0 15 50 32 93 32 25 0 56 -9 76 -21 40 -24 54 -18 15 7 -37 25 -139 30 -179 9z"/> <path d="M961 2849 c-26 -5 -56 -20 -73 -36 -40 -38 -35 -51 7 -15 45 40 117 55 136 28 4 -5 15 -6 25 -2 16 6 17 9 4 15 -29 16 -55 19 -99 10z"/> <path d="M1930 2830 c-9 -16 -8 -22 5 -26 9 -4 14 -13 11 -20 -3 -8 -2 -14 3 -14 4 0 7 -9 7 -20 -1 -25 16 -31 20 -5 4 24 -18 105 -28 105 -4 0 -12 -9 -18 -20z"/> <path d="M1442 2824 c-19 -8 -43 -24 -55 -34 l-21 -20 28 0 c19 0 29 6 33 19 7 27 33 36 33 11 0 -16 7 -20 30 -20 17 0 30 5 30 10 0 6 -4 10 -9 10 -5 0 -12 7 -15 16 -6 15 -4 15 11 3 10 -8 22 -20 26 -27 11 -16 27 -6 27 18 0 13 5 17 20 13 20 -5 20 -6 3 -27 -10 -11 -11 -15 -3 -8 8 6 26 12 40 12 40 0 44 12 9 27 -41 17 -145 15 -187 -3z"/> <path d="M1080 2813 c0 -12 38 -33 61 -33 20 0 7 16 -26 31 -29 14 -35 14 -35 2z"/> <path d="M767 2800 c-3 -10 1 -24 9 -31 11 -9 14 -7 14 14 0 32 -16 44 -23 17z"/> <path d="M965 2788 c-96 -29 -126 -68 -52 -68 l42 0 -23 18 -23 18 31 2 c21 2 30 -2 30 -13 0 -16 12 -18 59 -9 18 4 31 13 31 21 0 8 6 13 13 10 6 -2 11 -10 10 -16 -3 -13 16 -14 36 -2 35 22 -98 56 -154 39z m65 -28 c0 -5 -9 -8 -20 -7 -22 1 -27 13 -7 20 14 5 27 -1 27 -13z"/> <path d="M1896 2775 c-9 -26 -7 -32 5 -12 6 10 9 21 6 23 -2 3 -7 -2 -11 -11z"/> <path d="M835 2770 c-3 -5 -1 -10 4 -10 6 0 11 5 11 10 0 6 -2 10 -4 10 -3 0 -8 -4 -11 -10z"/> <path d="M1376 2740 c6 -6 24 -13 39 -16 16 -3 32 -7 37 -10 22 -14 101 -13 126 1 27 14 26 15 -21 11 -26 -2 -73 3 -105 10 -70 17 -90 18 -76 4z"/> <path d="M1082 2708 c-7 -7 -12 -8 -12 -2 0 5 -4 2 -10 -6 -12 -19 -144 -27 -165 -10 -21 17 -19 -4 2 -25 20 -21 95 -17 171 9 12 4 22 12 22 17 0 5 7 9 16 9 8 0 12 5 9 10 -8 13 -18 13 -33 -2z"/> <path d="M1628 2713 c7 -3 16 -2 19 1 4 3 -2 6 -13 5 -11 0 -14 -3 -6 -6z"/> <path d="M995 2700 c4 -6 11 -8 16 -5 14 9 11 15 -7 15 -8 0 -12 -5 -9 -10z"/> <path d="M1858 2685 c-14 -18 -17 -43 -15 -139 1 -64 5 -116 9 -116 3 0 15 -3 25 -6 16 -5 17 -5 1 6 -14 9 -17 27 -17 116 0 57 -3 109 -6 114 -3 6 -1 10 4 10 18 0 39 -63 29 -83 -5 -10 -8 -23 -6 -29 2 -6 12 6 22 26 13 28 15 41 7 49 -6 6 -11 21 -11 33 0 35 -22 46 -42 19z"/> <path d="M1600 2696 c0 -2 7 -6 15 -10 8 -3 15 -1 15 4 0 6 -7 10 -15 10 -8 0 -15 -2 -15 -4z"/> <path d="M1960 2597 c0 -8 -9 -22 -20 -32 -20 -18 -27 -45 -12 -45 7 0 52 73 52 84 0 4 -4 6 -10 6 -5 0 -10 -6 -10 -13z"/> <path d="M766 2574 c-3 -9 -6 -30 -6 -47 0 -25 3 -29 10 -17 8 11 10 7 10 -20 -1 -19 6 -69 15 -110 9 -41 18 -84 19 -95 4 -33 28 -98 45 -124 14 -23 14 -25 -9 -40 -14 -9 -43 -30 -65 -48 -60 -48 -101 -68 -194 -92 -87 -23 -242 -86 -283 -115 -35 -25 -18 -19 73 23 46 22 131 51 188 66 136 34 153 42 238 109 75 59 83 63 83 44 0 -6 8 -20 17 -30 15 -16 15 -21 3 -28 -9 -6 -17 -5 -21 2 -8 12 -29 2 -29 -13 0 -6 4 -8 8 -5 5 3 9 -2 9 -10 0 -8 -6 -13 -14 -10 -7 3 -13 -1 -13 -8 0 -8 -6 -17 -12 -19 -7 -3 1 -6 17 -6 24 0 36 8 59 38 l29 39 49 -48 c44 -44 50 -54 58 -112 17 -109 30 -149 91 -273 32 -66 75 -166 95 -222 26 -70 43 -105 56 -109 10 -3 26 -16 34 -29 l16 -24 44 47 c24 26 44 51 44 55 0 5 37 48 83 96 45 48 106 121 136 162 50 68 57 85 93 224 21 83 46 173 54 200 9 28 20 104 25 170 5 66 11 140 13 165 3 25 2 34 -1 21 -4 -19 -7 -21 -14 -10 -5 9 -9 10 -9 2 0 -6 4 -14 9 -17 11 -7 -26 -134 -45 -153 -8 -8 -14 -20 -14 -27 0 -8 -16 -31 -36 -52 -20 -22 -41 -46 -48 -55 -15 -22 -130 -98 -167 -111 -22 -8 -33 -7 -45 3 -14 11 -18 10 -29 -4 -8 -12 -15 -14 -20 -7 -3 5 -11 8 -16 5 -5 -4 -9 2 -9 12 -1 17 -1 17 -15 -1 -8 -10 -12 -23 -9 -27 3 -5 -2 -9 -10 -9 -8 0 -20 8 -25 18 -10 16 -12 13 -15 -20 -1 -8 12 -13 32 -13 19 0 32 5 32 13 0 6 7 12 16 12 8 0 13 -4 9 -9 -3 -6 4 -9 15 -8 11 1 20 5 20 10 0 5 9 5 20 2 22 -7 140 41 140 57 0 4 7 8 15 8 25 0 134 118 165 179 l29 56 0 -35 c0 -19 -11 -75 -25 -125 -14 -49 -28 -107 -31 -127 -3 -21 -9 -38 -13 -38 -4 0 -11 -7 -14 -16 -3 -8 -2 -12 4 -9 6 3 10 4 10 2 0 -4 -40 -134 -61 -195 -15 -47 -108 -177 -125 -176 -7 1 -11 -3 -8 -8 8 -12 -52 -69 -62 -59 -4 3 -5 1 -1 -4 3 -6 -12 -30 -34 -53 -21 -24 -39 -45 -39 -48 0 -3 -13 -19 -29 -37 -28 -29 -31 -30 -57 -17 -15 8 -29 23 -32 33 -2 9 -8 17 -13 17 -5 0 -9 8 -9 19 0 17 -15 60 -40 116 -32 72 -50 119 -50 131 0 8 -4 14 -10 14 -5 0 -10 8 -10 18 0 10 -4 22 -9 27 -8 10 -27 68 -66 200 -27 96 -28 98 -19 93 83 -41 158 -57 208 -44 35 9 33 21 -5 22 -20 1 -26 -2 -17 -7 9 -6 9 -9 1 -9 -17 0 -28 21 -15 29 7 4 8 12 2 21 -7 11 -10 8 -15 -13 -7 -25 -8 -26 -39 -13 -17 7 -42 12 -56 11 -14 -1 -30 5 -37 14 -6 9 -17 16 -25 16 -7 1 -12 7 -10 14 1 7 -2 9 -9 5 -6 -3 -15 0 -20 7 -11 17 -12 32 -1 25 4 -2 12 6 18 19 10 20 9 22 -5 17 -9 -3 -23 -14 -33 -24 -9 -11 -19 -15 -22 -10 -2 4 9 19 25 33 17 13 35 33 40 44 9 18 9 19 -4 3 -20 -25 -42 -22 -54 5 -10 22 -43 34 -43 15 0 -4 7 -8 16 -8 8 0 12 -4 9 -10 -3 -5 -1 -10 4 -10 7 0 7 -7 -1 -20 -21 -33 -45 -23 -83 32 -41 61 -42 71 -15 105 23 30 26 47 6 40 -9 -4 -16 1 -18 13 -2 14 -7 17 -17 11 -12 -8 -12 -12 2 -26 9 -9 22 -13 28 -9 6 3 3 -6 -6 -20 -10 -15 -21 -23 -25 -19 -14 15 -19 70 -8 81 7 7 8 15 4 19 -4 4 -12 1 -17 -7 -9 -12 -10 -11 -6 6 2 12 1 27 -3 35 -5 8 -11 34 -14 59 -12 86 -28 180 -31 180 -1 0 -6 -7 -9 -16z"/> <path d="M1830 2555 c-2 -5 -4 -14 -5 -20 -1 -5 -5 -18 -10 -28 -11 -26 1 -32 15 -7 6 11 9 31 7 43 -2 12 -6 18 -7 12z"/> <path d="M1276 2495 c-9 -14 -12 -25 -7 -25 5 0 11 4 13 9 5 14 58 1 58 -14 0 -8 8 -11 20 -8 27 7 25 14 -13 41 -42 28 -51 28 -71 -3z"/> <path d="M1030 2500 c-13 -8 -13 -10 2 -10 9 0 20 5 23 10 8 13 -5 13 -25 0z"/> <path d="M1488 2503 c6 -2 18 -2 25 0 6 3 1 5 -13 5 -14 0 -19 -2 -12 -5z"/> <path d="M1131 2486 c-16 -19 -8 -46 13 -46 10 0 13 6 10 15 -4 11 0 15 16 15 13 0 20 5 18 13 -7 18 -43 20 -57 3z"/> <path d="M990 2480 c0 -5 5 -10 11 -10 5 0 7 5 4 10 -3 6 -8 10 -11 10 -2 0 -4 -4 -4 -10z"/> <path d="M1804 2431 c0 -22 4 -34 8 -28 11 17 10 67 -1 67 -5 0 -8 -18 -7 -39z"/> <path d="M910 2436 c0 -9 5 -16 10 -16 6 0 10 4 10 9 0 6 -4 13 -10 16 -5 3 -10 -1 -10 -9z"/> <path d="M1215 2440 c3 -5 10 -10 16 -10 5 0 9 5 9 10 0 6 -7 10 -16 10 -8 0 -12 -4 -9 -10z"/> <path d="M1147 2416 c-15 -14 -27 -33 -27 -43 0 -10 -4 -14 -8 -8 -13 18 -33 16 -59 -5 -14 -11 -32 -20 -39 -20 -22 0 -27 -20 -29 -104 -2 -64 2 -86 16 -104 9 -12 20 -18 23 -13 7 11 -3 41 -14 41 -10 0 -4 48 8 63 6 7 12 17 14 22 1 6 20 10 41 9 20 0 37 4 37 9 0 6 30 7 78 4 50 -3 104 0 155 10 43 8 85 12 95 7 20 -8 20 -8 47 0 29 8 45 -6 55 -48 7 -31 5 -38 -11 -47 -15 -8 -17 -14 -9 -29 13 -24 48 -26 57 -4 3 8 12 13 20 10 8 -3 0 8 -17 26 -21 21 -30 38 -26 51 2 10 -1 28 -7 38 -10 16 -9 22 3 30 13 8 12 12 -8 26 -27 19 -97 30 -87 13 3 -5 17 -10 31 -10 29 0 31 -15 5 -30 -15 -7 -36 -4 -87 16 -69 26 -125 27 -140 2 -5 -7 9 -8 42 -3 32 4 60 2 79 -6 29 -12 28 -13 -39 -20 -39 -4 -73 -6 -77 -3 -4 2 -9 1 -11 -3 -1 -5 -32 -6 -68 -3 -63 5 -64 6 -36 18 22 9 37 10 59 2 37 -12 37 -12 37 0 0 5 -16 14 -36 19 -40 11 -73 2 -106 -29 -13 -12 -36 -20 -55 -20 -18 0 -33 -5 -33 -12 0 -6 -2 -9 -5 -6 -3 3 1 18 10 34 8 16 15 23 15 17 0 -7 7 -13 15 -13 8 0 15 8 15 18 0 14 -2 15 -10 2 -9 -13 -10 -13 -10 0 0 8 9 21 20 28 17 10 20 10 20 -3 0 -13 7 -12 41 6 24 12 51 18 64 15 37 -9 49 17 20 42 -14 12 -25 19 -25 14 0 -4 -4 -1 -8 6 -7 9 -15 7 -35 -12z m410 -230 c-3 -7 0 -19 6 -25 8 -8 5 -11 -11 -11 -24 0 -29 19 -10 38 16 16 21 15 15 -2z"/> <path d="M1273 2428 c-31 -15 -33 -69 -3 -61 12 3 17 10 13 17 -4 6 -8 16 -9 23 -3 16 48 11 54 -6 3 -8 0 -11 -7 -7 -6 4 -11 2 -11 -3 0 -6 6 -11 13 -12 6 0 20 -2 30 -4 34 -7 19 34 -19 50 -20 8 -37 15 -38 14 0 0 -11 -5 -23 -11z m78 -41 c-10 -9 -11 -8 -5 6 3 10 9 15 12 12 3 -3 0 -11 -7 -18z"/> <path d="M1910 2430 c-9 -6 -10 -10 -3 -10 6 0 15 5 18 10 8 12 4 12 -15 0z"/> <path d="M1380 2410 c0 -5 5 -10 11 -10 5 0 7 5 4 10 -3 6 -8 10 -11 10 -2 0 -4 -4 -4 -10z"/> <path d="M1760 2411 c0 -5 5 -13 10 -16 6 -3 10 -2 10 4 0 5 -4 13 -10 16 -5 3 -10 2 -10 -4z"/> <path d="M966 2397 c3 -10 9 -15 12 -12 3 3 0 11 -7 18 -10 9 -11 8 -5 -6z"/> <path d="M1401 2384 c-7 -8 -10 -18 -6 -22 4 -4 13 2 21 12 8 11 14 14 14 7 0 -7 5 -9 10 -6 13 8 3 25 -13 25 -7 -1 -18 -8 -26 -16z"/> <path d="M1751 2344 c0 -11 3 -14 6 -6 3 7 2 16 -1 19 -3 4 -6 -2 -5 -13z"/> <path d="M1690 2328 c0 -16 5 -28 10 -28 6 0 10 -8 11 -17 0 -10 3 -13 5 -7 2 6 -2 26 -10 45 -15 34 -15 34 -16 7z"/> <path d="M1740 2301 c0 -25 6 -27 13 -6 4 8 2 17 -3 20 -6 4 -10 -3 -10 -14z"/> <path d="M1776 2303 c-6 -14 -5 -15 5 -6 7 7 10 15 7 18 -3 3 -9 -2 -12 -12z"/> <path d="M1673 2270 c-10 -14 -10 -19 0 -23 7 -2 1 -14 -16 -31 -28 -28 -35 -46 -17 -46 6 0 10 6 10 13 0 7 9 21 21 30 11 10 18 24 15 32 -3 8 -1 15 4 17 5 2 6 8 2 15 -6 9 -11 7 -19 -7z"/> <path d="M1767 2253 c3 -7 6 -13 8 -13 2 0 5 6 8 13 3 8 -1 14 -8 14 -7 0 -11 -6 -8 -14z"/> <path d="M1894 2243 c12 -23 23 -33 39 -32 14 0 17 2 7 6 -8 3 -25 17 -38 31 l-24 27 16 -32z"/> <path d="M1380 2230 c-14 -11 -34 -20 -45 -21 -16 -1 -17 -2 -3 -6 19 -5 78 23 78 37 0 13 -1 13 -30 -10z"/> <path d="M897 2234 c-10 -10 -9 -82 2 -88 11 -7 19 55 11 79 -3 9 -9 13 -13 9z"/> <path d="M1156 2222 c-7 -12 47 -36 66 -29 7 2 0 8 -17 12 -16 5 -33 12 -36 18 -4 6 -9 5 -13 -1z"/> <path d="M1276 2214 c-5 -14 -4 -15 9 -4 17 14 19 20 6 20 -5 0 -12 -7 -15 -16z"/> <path d="M1395 2190 c-54 -21 -150 -25 -225 -10 -25 4 -47 6 -50 3 -4 -4 27 -26 40 -28 21 -3 50 -18 50 -26 0 -15 101 1 150 24 55 25 109 57 95 56 -5 0 -32 -9 -60 -19z"/> <path d="M1970 2112 c11 -29 20 -66 20 -82 0 -17 4 -30 9 -30 5 0 12 -8 14 -17 3 -11 5 -8 6 9 1 31 -32 125 -54 154 -11 13 -9 3 5 -34z"/> <path d="M1582 2128 c5 -13 48 -22 48 -9 0 9 -24 21 -42 21 -5 0 -8 -5 -6 -12z"/> <path d="M1540 2115 c0 -8 4 -15 9 -15 5 0 11 -8 13 -17 3 -15 5 -15 10 3 3 14 -1 25 -13 33 -15 9 -19 8 -19 -4z"/> <path d="M1641 2118 c0 -10 -5 -18 -11 -18 -5 0 -7 -7 -3 -16 5 -15 7 -15 15 0 5 9 7 24 5 34 -4 16 -5 16 -6 0z"/> <path d="M1514 2091 c1 -17 6 -27 12 -24 7 2 9 13 7 24 -8 31 -20 31 -19 0z"/> <path d="M1171 2086 c-13 -15 -11 -60 3 -73 5 -4 7 2 4 14 -4 16 -2 20 8 16 8 -3 14 0 14 7 0 6 -4 9 -9 5 -16 -9 -24 15 -11 30 7 8 10 15 7 15 -2 0 -10 -6 -16 -14z"/> <path d="M1370 2074 c0 -8 5 -12 10 -9 6 4 8 11 5 16 -9 14 -15 11 -15 -7z"/> <path d="M1474 2068 c22 -33 25 -34 23 -8 -1 10 -3 17 -6 15 -2 -3 -11 1 -19 8 -11 9 -11 4 2 -15z"/> <path d="M1577 2071 c-3 -12 -1 -24 4 -27 13 -8 24 25 12 37 -7 7 -12 3 -16 -10z"/> <path d="M1109 2065 c-2 -11 -12 -20 -23 -20 -11 0 -21 -7 -23 -15 -3 -10 -2 -11 4 -4 4 7 24 11 43 10 24 -1 35 3 36 14 0 9 -1 10 -3 3 -7 -21 -21 -15 -25 10 -4 20 -4 21 -9 2z"/> <path d="M1262 2047 c-17 -46 -15 -53 8 -32 11 10 17 21 15 25 -3 4 3 11 12 14 15 6 15 8 3 16 -22 14 -25 13 -38 -23z"/> <path d="M1399 2068 c-1 -2 -3 -13 -4 -25 -2 -16 3 -23 15 -23 10 0 20 -7 24 -15 3 -8 1 -15 -4 -15 -6 0 -10 -8 -10 -17 0 -15 2 -15 14 2 10 14 18 16 28 10 8 -6 5 -2 -5 8 -11 9 -16 17 -13 17 4 0 1 6 -6 14 -7 8 -17 13 -23 13 -5 -1 -9 6 -7 16 2 14 -4 24 -9 15z"/> <path d="M1530 2045 c0 -9 -12 -18 -30 -21 -16 -4 -27 -10 -24 -15 3 -5 10 -7 15 -4 5 4 12 -1 15 -9 3 -9 11 -16 16 -16 7 0 6 5 -1 13 -11 14 -5 27 11 27 5 0 6 -5 2 -12 -4 -7 -3 -8 4 -4 15 9 16 43 2 51 -5 3 -10 -1 -10 -10z"/> <path d="M1346 2035 c-3 -8 -1 -15 4 -15 6 0 10 7 10 15 0 8 -2 15 -4 15 -2 0 -6 -7 -10 -15z"/> <path d="M1184 2005 c-22 -24 -21 -44 0 -22 11 11 29 47 23 47 -1 0 -12 -11 -23 -25z"/> <path d="M791 1989 c-14 -40 -14 -39 4 -33 8 4 13 10 10 14 -3 5 2 15 10 23 19 19 19 27 1 27 -8 0 -19 -14 -25 -31z"/> <path d="M1275 2009 c-11 -17 -2 -18 19 -3 17 12 17 14 4 14 -9 0 -20 -5 -23 -11z"/> <path d="M737 1965 c-30 -28 -31 -33 -17 -55 8 -12 10 -11 10 7 0 12 4 25 10 28 10 6 34 45 28 45 -2 0 -16 -11 -31 -25z"/> <path d="M962 1978 c-14 -14 -16 -42 -3 -34 7 5 23 46 17 46 -1 0 -7 -5 -14 -12z"/> <path d="M1301 1974 c0 -11 3 -14 6 -6 3 7 2 16 -1 19 -3 4 -6 -2 -5 -13z"/> <path d="M1195 1970 c-3 -5 -1 -10 4 -10 6 0 11 5 11 10 0 6 -2 10 -4 10 -3 0 -8 -4 -11 -10z"/> <path d="M1270 1965 c0 -8 5 -15 10 -15 6 0 10 7 10 15 0 8 -4 15 -10 15 -5 0 -10 -7 -10 -15z"/> <path d="M795 1946 c-22 -12 -41 -31 -43 -42 -3 -18 -2 -18 11 -1 8 9 19 17 25 17 6 0 19 9 29 19 10 10 27 21 38 24 20 5 20 5 0 5 -11 0 -38 -10 -60 -22z"/> <path d="M1628 1940 c-18 -16 -30 -30 -27 -30 4 0 22 13 40 30 19 16 31 30 27 30 -4 0 -22 -13 -40 -30z"/> <path d="M2014 1935 c4 -16 16 -41 27 -56 11 -15 18 -31 17 -36 -1 -4 6 -33 17 -63 10 -30 24 -80 31 -110 11 -49 12 -51 13 -19 2 66 -59 269 -81 269 -5 0 -8 6 -8 14 0 8 -5 18 -11 22 -9 5 -10 -1 -5 -21z"/> <path d="M2131 1902 c23 -32 95 -79 106 -69 2 3 -5 8 -18 12 -12 4 -42 26 -67 49 -44 39 -45 40 -21 8z"/> <path d="M702 1890 c0 -14 2 -19 5 -12 2 6 2 18 0 25 -3 6 -5 1 -5 -13z"/> <path d="M773 1878 c-23 -8 -36 -21 -48 -52 -40 -95 -49 -112 -67 -139 -11 -16 -18 -30 -15 -33 9 -9 74 105 87 152 11 38 20 49 47 60 18 8 33 16 33 19 0 3 -1 5 -2 4 -2 -1 -17 -6 -35 -11z"/> <path d="M713 1863 c-15 -5 -17 -23 -4 -23 5 0 11 7 15 15 3 8 4 15 3 14 -1 0 -8 -3 -14 -6z"/> <path d="M912 1841 c-6 -17 -7 -31 -3 -31 10 0 25 50 18 57 -3 2 -9 -10 -15 -26z"/> <path d="M1310 1850 c0 -5 5 -10 11 -10 5 0 7 5 4 10 -3 6 -8 10 -11 10 -2 0 -4 -4 -4 -10z"/> <path d="M625 1830 c-3 -6 1 -7 9 -4 18 7 21 14 7 14 -6 0 -13 -4 -16 -10z"/> <path d="M667 1793 c-73 -117 -160 -313 -172 -388 -4 -27 3 -16 20 34 26 77 43 108 31 57 -4 -17 -9 -66 -12 -110 -2 -45 -6 -99 -9 -121 -13 -104 -16 -139 -10 -134 9 10 18 74 30 219 9 111 24 216 36 250 11 31 66 128 79 140 3 3 16 22 27 42 29 50 10 59 -20 11z"/> <path d="M2204 1816 c11 -9 24 -16 30 -16 12 0 7 5 -24 19 -24 11 -24 11 -6 -3z"/> <path d="M2275 1816 c43 -20 155 -54 149 -44 -3 4 -35 17 -72 28 -93 29 -112 32 -77 16z"/> <path d="M218 1803 c-30 -35 -95 -153 -84 -153 2 0 18 24 35 53 16 28 40 67 51 85 24 35 22 43 -2 15z"/> <path d="M1340 1755 c-7 -9 -8 -15 -2 -15 5 0 12 7 16 15 3 8 4 15 2 15 -2 0 -9 -7 -16 -15z"/> <path d="M1420 1760 c0 -5 5 -10 11 -10 5 0 7 5 4 10 -3 6 -8 10 -11 10 -2 0 -4 -4 -4 -10z"/> <path d="M1480 1758 c0 -11 12 -10 30 2 12 7 10 9 -8 7 -12 0 -22 -5 -22 -9z"/> <path d="M400 1756 c0 -7 41 -76 45 -76 2 0 -4 18 -12 40 -9 22 -20 40 -25 40 -4 0 -8 -2 -8 -4z"/> <path d="M375 1740 c-3 -5 -1 -10 4 -10 6 0 11 5 11 10 0 6 -2 10 -4 10 -3 0 -8 -4 -11 -10z"/> <path d="M2465 1740 c3 -5 11 -10 16 -10 6 0 7 5 4 10 -3 6 -11 10 -16 10 -6 0 -7 -4 -4 -10z"/> <path d="M216 1675 c3 -38 10 -74 15 -80 11 -11 4 49 -12 115 -6 25 -7 16 -3 -35z"/> <path d="M2500 1725 c0 -7 61 -37 66 -33 2 3 -12 12 -31 21 -19 9 -35 15 -35 12z"/> <path d="M340 1709 c0 -5 5 -7 10 -4 6 3 10 8 10 11 0 2 -4 4 -10 4 -5 0 -10 -5 -10 -11z"/> <path d="M700 1696 c0 -21 29 -28 46 -12 21 21 18 26 -16 26 -19 0 -30 -5 -30 -14z"/> <path d="M796 1685 c4 -8 10 -15 15 -15 6 0 5 -9 -1 -21 -7 -11 -9 -23 -6 -27 3 -3 6 0 6 7 0 7 4 10 9 7 5 -4 11 0 14 6 3 8 7 6 12 -7 4 -11 9 -27 13 -35 3 -8 4 -18 4 -22 -1 -4 10 -11 26 -14 42 -11 161 -86 168 -106 3 -10 14 -23 25 -29 11 -5 16 -15 13 -21 -5 -7 -2 -8 6 -3 10 6 12 4 7 -8 -7 -18 17 -42 33 -32 5 3 21 -6 34 -22 47 -55 61 -72 78 -90 40 -43 56 -54 62 -44 4 5 -4 20 -17 33 -13 13 -55 53 -93 89 -38 37 -90 91 -117 122 -34 39 -70 67 -128 97 -83 43 -88 48 -93 95 -2 20 -12 31 -36 41 -40 17 -41 17 -34 -1z"/> <path d="M1955 1684 c-11 -3 -46 -9 -77 -15 -32 -7 -64 -19 -73 -28 -24 -24 -56 -63 -72 -88 -9 -13 -19 -23 -24 -23 -5 0 -25 -16 -43 -35 -19 -19 -39 -35 -45 -35 -6 0 -7 -7 -4 -17 4 -10 2 -14 -4 -10 -6 4 -17 -8 -24 -26 -16 -38 -29 -49 -151 -129 -94 -60 -178 -140 -178 -168 0 -9 8 -4 18 13 17 27 32 35 32 17 0 -5 5 -10 12 -10 9 0 9 3 0 12 -16 16 -15 31 2 25 10 -4 13 0 11 14 -3 15 5 24 33 37 20 9 42 24 49 32 9 10 12 11 13 3 0 -17 20 -17 20 0 0 6 27 30 59 52 33 22 67 54 77 70 10 17 23 34 31 38 7 4 13 13 13 20 0 7 23 30 51 52 29 22 59 48 67 57 9 9 20 14 25 11 6 -3 7 -2 4 4 -7 11 39 83 54 83 6 0 7 -5 3 -11 -4 -8 -1 -8 12 -1 22 11 125 37 137 34 4 -1 7 3 7 8 0 16 27 11 34 -6 3 -9 7 -46 7 -82 1 -54 3 -60 9 -32 3 19 4 56 2 83 -3 28 -1 47 5 47 23 0 35 -33 40 -110 4 -50 9 -76 14 -68 20 30 1 162 -26 180 -10 8 -85 9 -120 2z"/> <path d="M2580 1686 c0 -2 9 -6 20 -9 11 -3 18 -1 14 4 -5 9 -34 13 -34 5z"/> <path d="M1082 1628 c-10 -30 -10 -31 3 -14 13 17 21 46 12 46 -1 0 -8 -15 -15 -32z"/> <path d="M726 1641 c-4 -6 -15 -34 -25 -63 -11 -29 -22 -61 -26 -70 -4 -10 -3 -18 3 -18 10 0 66 149 59 157 -3 2 -8 0 -11 -6z"/> <path d="M2671 1647 c2 -2 18 -11 34 -21 l30 -17 -24 20 c-13 12 -28 21 -34 21 -6 0 -8 -1 -6 -3z"/> <path d="M927 1619 c7 -7 15 -10 18 -7 3 3 -2 9 -12 12 -14 6 -15 5 -6 -5z"/> <path d="M1893 1605 c0 -8 4 -12 9 -9 5 3 6 10 3 15 -9 13 -12 11 -12 -6z"/> <path d="M761 1594 c0 -11 3 -14 6 -6 3 7 2 16 -1 19 -3 4 -6 -2 -5 -13z"/> <path d="M2648 1593 c6 -2 18 -2 25 0 6 3 1 5 -13 5 -14 0 -19 -2 -12 -5z"/> <path d="M1050 1579 c0 -5 5 -7 10 -4 6 3 10 8 10 11 0 2 -4 4 -10 4 -5 0 -10 -5 -10 -11z"/> <path d="M2600 1586 c0 -2 7 -7 16 -10 8 -3 12 -2 9 4 -6 10 -25 14 -25 6z"/> <path d="M2760 1588 c0 -4 6 -13 13 -20 7 -7 21 -24 30 -38 9 -13 17 -20 17 -14 0 11 -59 83 -60 72z"/> <path d="M236 1553 c9 -38 14 -42 14 -10 0 14 -5 29 -10 32 -7 4 -8 -3 -4 -22z"/> <path d="M1080 1544 c0 -6 7 -19 16 -30 14 -18 14 -18 3 6 -14 31 -19 36 -19 24z"/> <path d="M40 1515 c-7 -9 -10 -18 -7 -21 3 -3 10 4 17 15 13 25 8 27 -10 6z"/> <path d="M1860 1510 c-8 -5 -12 -12 -9 -15 4 -3 12 1 19 10 14 17 11 19 -10 5z"/> <path d="M260 1482 c11 -39 29 -72 39 -72 5 0 21 -29 36 -65 16 -36 30 -63 33 -61 7 8 -59 144 -73 150 -7 2 -16 18 -20 35 -4 17 -10 33 -15 36 -5 3 -5 -7 0 -23z"/> <path d="M442 1480 c0 -14 2 -19 5 -12 2 6 2 18 0 25 -3 6 -5 1 -5 -13z"/> <path d="M33 1400 c0 -25 2 -35 4 -22 2 12 2 32 0 45 -2 12 -4 2 -4 -23z"/> <path d="M2770 1405 c-7 -22 -23 -62 -35 -90 -12 -27 -31 -75 -42 -105 -11 -30 -32 -87 -47 -125 -38 -102 -76 -259 -83 -340 -3 -38 -10 -77 -15 -85 -7 -11 -8 -8 -5 12 3 18 -1 29 -11 33 -12 4 -14 -3 -9 -42 3 -30 0 -57 -8 -73 -9 -17 -10 -31 -4 -41 7 -12 9 -11 9 2 0 9 22 59 49 110 51 99 72 152 52 134 -6 -6 -17 -28 -25 -50 -10 -27 -15 -33 -16 -20 -2 11 -1 25 0 30 1 6 6 41 12 78 10 71 85 303 157 487 23 57 40 109 38 115 -2 5 -10 -8 -17 -30z"/> <path d="M155 1372 c6 -44 34 -126 42 -118 3 2 -5 31 -16 63 -11 32 -22 67 -25 78 -3 11 -3 1 -1 -23z"/> <path d="M1640 1391 c0 -5 5 -13 10 -16 6 -3 10 -2 10 4 0 5 -4 13 -10 16 -5 3 -10 2 -10 -4z"/> <path d="M300 1368 c0 -3 17 -44 39 -90 21 -45 44 -100 51 -121 6 -21 14 -37 16 -34 7 7 -32 109 -69 182 -20 39 -36 67 -37 63z"/> <path d="M2501 1354 c0 -11 3 -14 6 -6 3 7 2 16 -1 19 -3 4 -6 -2 -5 -13z"/> <path d="M1687 1334 c6 -15 23 -19 23 -5 0 5 -7 11 -14 14 -10 4 -13 1 -9 -9z"/> <path d="M441 1314 c0 -11 3 -14 6 -6 3 7 2 16 -1 19 -3 4 -6 -2 -5 -13z"/> <path d="M2493 1235 c0 -33 2 -45 4 -27 2 18 2 45 0 60 -2 15 -4 0 -4 -33z"/> <path d="M45 1250 c-3 -5 3 -15 13 -22 10 -7 32 -35 47 -63 16 -27 53 -83 83 -122 49 -68 72 -88 72 -62 0 5 -4 8 -9 4 -5 -3 -13 5 -17 17 -4 13 -10 25 -13 28 -4 3 -36 48 -72 100 -71 105 -96 134 -104 120z"/> <path d="M1426 1214 c-4 -10 -1 -14 6 -12 15 5 23 28 10 28 -5 0 -13 -7 -16 -16z"/> <path d="M1790 1211 c0 -10 19 -25 25 -20 1 2 -3 10 -11 17 -8 7 -14 8 -14 3z"/> <path d="M180 1207 c0 -3 18 -24 40 -48 22 -24 55 -68 73 -96 17 -29 35 -53 39 -53 20 0 -50 111 -85 135 -12 8 -18 15 -13 15 12 0 -14 29 -36 41 -10 5 -18 8 -18 6z"/> <path d="M439 1178 c4 -28 6 -29 9 -9 2 13 0 27 -5 32 -6 6 -7 -3 -4 -23z"/> <path d="M2120 1191 c0 -6 4 -13 10 -16 6 -3 7 1 4 9 -7 18 -14 21 -14 7z"/> <path d="M2620 1165 c0 -8 -9 -34 -20 -57 -32 -71 -72 -180 -67 -184 4 -5 67 139 67 154 0 4 9 27 20 50 23 47 24 52 10 52 -5 0 -10 -7 -10 -15z"/> <path d="M1895 1084 c63 -73 74 -84 90 -84 5 0 -14 23 -43 52 -29 28 -52 55 -52 59 0 4 -12 15 -27 25 -19 11 -8 -6 32 -52z"/> <path d="M2497 1105 c3 -27 7 -52 9 -54 8 -9 2 65 -6 84 -6 13 -7 2 -3 -30z"/> <path d="M428 1100 c0 -14 -1 -32 0 -40 1 -8 2 -31 3 -50 2 -44 8 -70 17 -70 10 0 2 163 -9 175 -5 5 -10 -1 -11 -15z"/> <path d="M511 1104 c0 -11 3 -14 6 -6 3 7 2 16 -1 19 -3 4 -6 -2 -5 -13z"/> <path d="M1236 1079 c-9 -30 -13 -115 -6 -134 5 -13 9 9 12 60 4 79 3 101 -6 74z"/> <path d="M2244 1055 c-18 -13 -16 -14 21 -13 22 1 34 3 27 6 -7 2 -10 8 -6 13 8 14 -20 11 -42 -6z"/> <path d="M2738 967 c-59 -127 -118 -280 -118 -305 0 -10 -4 -22 -10 -28 -6 -6 -6 -15 0 -24 8 -13 10 -13 10 2 0 9 5 18 11 20 5 2 12 19 15 38 3 19 11 41 16 48 6 6 8 12 5 12 -14 0 74 220 124 312 11 21 11 28 2 28 -5 -1 -29 -47 -55 -103z"/> <path d="M500 1038 c-1 -7 -5 -32 -9 -56 -6 -30 -5 -42 3 -39 12 4 26 107 14 107 -5 0 -8 -6 -8 -12z"/> <path d="M2220 1019 c0 -5 5 -7 10 -4 6 3 10 8 10 11 0 2 -4 4 -10 4 -5 0 -10 -5 -10 -11z"/> <path d="M2298 1023 c7 -3 16 -2 19 1 4 3 -2 6 -13 5 -11 0 -14 -3 -6 -6z"/> <path d="M2260 1016 c0 -3 8 -12 17 -22 10 -9 26 -35 35 -57 16 -35 16 -39 2 -33 -15 6 -15 4 -4 -11 8 -10 38 -43 67 -73 41 -43 56 -67 65 -108 7 -28 16 -52 20 -52 5 0 8 -6 8 -14 0 -8 4 -17 9 -20 4 -3 7 7 5 23 -6 48 -43 135 -79 187 -19 27 -35 55 -35 62 0 7 -5 10 -11 7 -7 -5 -5 -15 6 -31 8 -13 11 -24 6 -24 -17 0 -28 25 -24 53 2 19 0 26 -7 22 -5 -3 -13 2 -16 12 -12 37 -26 59 -45 71 -10 7 -19 10 -19 8z"/> <path d="M2191 995 c1 -22 16 -48 22 -38 3 5 0 19 -8 29 -8 10 -14 15 -14 9z"/> <path d="M2504 863 c7 -122 10 -142 21 -131 9 9 -8 258 -18 258 -6 0 -7 -45 -3 -127z"/> <path d="M277 923 c8 -24 44 -63 57 -63 6 0 -1 12 -16 25 -16 13 -28 31 -28 40 0 8 -4 15 -10 15 -5 0 -7 -8 -3 -17z"/> <path d="M356 908 c10 -13 45 -51 77 -86 67 -71 66 -85 -7 -96 -24 -4 -52 -13 -62 -21 -18 -14 -18 -14 1 -15 11 0 32 7 48 14 15 8 27 11 27 5 0 -5 9 -9 20 -9 30 0 24 -22 -17 -56 -22 -18 -33 -35 -29 -42 9 -15 46 -16 46 -2 0 6 -5 10 -12 10 -9 0 -9 3 0 12 10 10 15 10 22 -2 14 -22 13 -26 -16 -49 -28 -22 -84 -29 -84 -10 0 5 -4 8 -9 5 -5 -4 -35 15 -68 40 l-58 46 45 -42 c52 -50 102 -82 148 -98 30 -10 47 0 20 12 -9 3 -7 9 6 20 23 18 21 19 30 -17 6 -25 1 -35 -41 -74 -26 -25 -42 -43 -35 -39 8 5 12 0 12 -13 0 -23 16 -28 23 -8 2 6 8 9 12 4 5 -4 3 -13 -3 -19 -7 -7 -12 -22 -12 -35 0 -13 -4 -23 -8 -23 -5 0 -7 -13 -4 -28 5 -37 -49 -150 -94 -193 -34 -33 -39 -34 -122 -37 -48 -2 -91 -8 -96 -13 -6 -5 -1 -9 13 -9 13 0 36 -10 53 -21 29 -21 30 -21 24 -2 -4 12 -2 20 6 20 60 3 132 32 142 58 3 10 11 13 18 9 7 -4 10 -4 6 1 -4 4 5 31 21 59 16 28 32 69 36 91 4 22 21 85 38 140 17 55 29 105 28 110 -2 6 -5 71 -6 145 -1 98 -8 154 -22 205 -16 58 -20 66 -26 45 -4 -15 0 -33 9 -48 33 -50 6 -41 -49 17 -57 59 -89 84 -51 39z"/> <path d="M2649 893 c-13 -21 -27 -47 -31 -58 -8 -20 -8 -20 8 0 18 24 56 95 50 95 -2 0 -14 -17 -27 -37z"/> <path d="M1230 871 c0 -25 6 -27 13 -6 4 8 2 17 -3 20 -6 4 -10 -3 -10 -14z"/> <path d="M0 851 c0 -11 41 -80 64 -108 24 -30 77 -83 83 -83 6 0 -14 28 -38 50 -8 8 -37 46 -62 84 -26 37 -47 63 -47 57z"/> <path d="M238 849 c15 -14 52 -20 52 -9 0 6 -4 8 -10 5 -5 -3 -10 -2 -10 2 0 5 -9 9 -20 9 -11 0 -16 -3 -12 -7z"/> <path d="M1236 824 c-3 -9 -2 -23 4 -32 7 -14 9 -10 10 16 0 35 -5 41 -14 16z"/> <path d="M160 819 c0 -5 5 -7 10 -4 6 3 10 8 10 11 0 2 -4 4 -10 4 -5 0 -10 -5 -10 -11z"/> <path d="M320 816 c0 -2 7 -7 16 -10 8 -3 12 -2 9 4 -6 10 -25 14 -25 6z"/> <path d="M380 791 c0 -10 30 -24 37 -17 3 3 2 9 -2 15 -8 13 -35 15 -35 2z"/> <path d="M2380 747 c0 -18 6 -41 13 -52 7 -11 19 -38 26 -60 8 -22 29 -62 47 -90 19 -27 34 -59 34 -70 0 -11 6 -29 13 -40 7 -11 21 -46 31 -77 16 -47 17 -60 6 -73 -7 -8 -8 -15 -2 -15 15 0 26 -91 12 -100 -8 -5 -3 -21 15 -54 25 -46 26 -48 8 -61 -17 -13 -17 -14 1 -11 29 4 39 32 21 59 -10 16 -17 55 -19 115 -3 52 -11 104 -20 124 -8 18 -20 62 -26 98 -8 43 -19 74 -35 90 -42 46 -75 102 -75 130 0 15 -7 41 -15 56 -8 16 -15 37 -15 47 0 9 -4 17 -10 17 -5 0 -10 -15 -10 -33z"/> <path d="M2056 761 c-3 -5 3 -11 14 -14 24 -6 36 8 14 17 -20 8 -22 8 -28 -3z"/> <path d="M1237 733 c-3 -16 -1 -32 4 -37 5 -6 9 4 9 27 0 44 -6 48 -13 10z"/> <path d="M2322 708 c5 -15 28 -23 28 -10 0 5 -7 13 -16 16 -10 4 -14 1 -12 -6z"/> <path d="M2118 698 c5 -5 16 -8 23 -6 8 3 3 7 -10 11 -17 4 -21 3 -13 -5z"/> <path d="M2730 659 c0 -5 5 -7 10 -4 6 3 10 8 10 11 0 2 -4 4 -10 4 -5 0 -10 -5 -10 -11z"/> <path d="M2760 660 c0 -5 5 -10 11 -10 5 0 7 5 4 10 -3 6 -8 10 -11 10 -2 0 -4 -4 -4 -10z"/> <path d="M2700 644 c0 -8 5 -12 10 -9 6 3 10 10 10 16 0 5 -4 9 -10 9 -5 0 -10 -7 -10 -16z"/> <path d="M2342 625 c-15 -33 -15 -42 0 -27 11 11 22 52 15 52 -2 0 -9 -11 -15 -25z"/> <path d="M1840 629 c0 -5 5 -7 10 -4 6 3 10 8 10 11 0 2 -4 4 -10 4 -5 0 -10 -5 -10 -11z"/> <path d="M1246 622 c-2 -4 -1 -14 5 -22 7 -12 9 -10 9 8 0 23 -5 28 -14 14z"/> <path d="M2380 595 c-6 -15 -13 -32 -16 -36 -3 -5 -1 -9 4 -9 12 0 37 58 29 67 -4 3 -11 -7 -17 -22z"/> <path d="M40 599 c0 -14 50 -23 61 -10 5 6 7 9 3 7 -3 -2 -19 0 -35 4 -17 5 -29 5 -29 -1z"/> <path d="M140 602 c0 -5 7 -9 15 -9 8 0 12 4 9 9 -3 4 -9 8 -15 8 -5 0 -9 -4 -9 -8z"/> <path d="M2607 583 c-10 -9 -8 -33 2 -33 5 0 11 9 14 20 5 20 -3 26 -16 13z"/> <path d="M2396 563 c-6 -14 -5 -15 5 -6 7 7 10 15 7 18 -3 3 -9 -2 -12 -12z"/> <path d="M1252 530 c0 -14 2 -19 5 -12 2 6 2 18 0 25 -3 6 -5 1 -5 -13z"/> <path d="M2325 540 c3 -5 8 -10 11 -10 2 0 4 5 4 10 0 6 -5 10 -11 10 -5 0 -7 -4 -4 -10z"/> <path d="M2204 519 c-21 -5 -14 -7 29 -8 31 0 57 2 57 7 0 9 -46 9 -86 1z"/> <path d="M1825 510 c3 -5 10 -10 16 -10 5 0 9 5 9 10 0 6 -7 10 -16 10 -8 0 -12 -4 -9 -10z"/> <path d="M2138 513 c6 -2 18 -2 25 0 6 3 1 5 -13 5 -14 0 -19 -2 -12 -5z"/> <path d="M2628 513 c7 -3 16 -2 19 1 4 3 -2 6 -13 5 -11 0 -14 -3 -6 -6z"/> <path d="M1020 499 c0 -5 5 -7 10 -4 6 3 10 8 10 11 0 2 -4 4 -10 4 -5 0 -10 -5 -10 -11z"/> <path d="M1905 500 c3 -5 11 -10 16 -10 6 0 7 5 4 10 -3 6 -11 10 -16 10 -6 0 -7 -4 -4 -10z"/> <path d="M1958 493 c7 -3 16 -2 19 1 4 3 -2 6 -13 5 -11 0 -14 -3 -6 -6z"/> <path d="M2036 491 c-3 -5 1 -11 9 -14 9 -4 12 -1 8 9 -6 16 -10 17 -17 5z"/> <path d="M2302 491 c-11 -7 -11 -9 1 -14 9 -3 18 1 21 9 6 16 -2 18 -22 5z"/> <path d="M2590 489 c0 -5 5 -7 10 -4 6 3 10 8 10 11 0 2 -4 4 -10 4 -5 0 -10 -5 -10 -11z"/> <path d="M265 480 c-11 -5 -34 -9 -51 -9 -17 -1 -34 -4 -38 -8 -3 -4 -30 -6 -59 -6 -52 2 -52 2 -12 -7 22 -4 53 -6 70 -4 16 2 39 4 49 5 11 0 29 5 40 12 12 6 25 10 29 9 5 -1 6 2 2 8 -3 5 -7 10 -8 9 -1 0 -11 -4 -22 -9z"/> <path d="M2248 483 c6 -2 18 -2 25 0 6 3 1 5 -13 5 -14 0 -19 -2 -12 -5z"/> <path d="M1839 466 c9 -11 9 -15 -1 -18 -8 -3 -5 -9 9 -16 17 -10 27 -9 52 5 24 15 33 15 43 5 10 -10 8 -12 -11 -10 -14 2 -26 -3 -29 -12 -4 -12 -2 -13 9 -3 10 10 16 9 31 -4 17 -15 18 -15 15 4 -4 29 -27 55 -43 49 -7 -3 -16 0 -20 6 -4 7 -9 6 -15 -3 -6 -11 -11 -11 -21 -1 -17 17 -33 15 -19 -2z m49 -22 c-9 -10 -21 -13 -29 -8 -9 5 -8 9 7 15 31 12 39 10 22 -7z"/> <path d="M2470 456 c0 -14 4 -27 8 -30 5 -3 6 8 4 25 -5 35 -12 38 -12 5z"/> <path d="M1237 423 c3 -21 9 -51 14 -68 9 -30 9 -30 4 4 -3 18 -5 49 -5 67 0 19 -4 34 -9 34 -6 0 -7 -17 -4 -37z"/> <path d="M1440 450 c0 -5 5 -10 11 -10 5 0 7 5 4 10 -3 6 -8 10 -11 10 -2 0 -4 -4 -4 -10z"/> <path d="M2906 445 c-3 -9 -6 -22 -5 -28 0 -7 5 -1 10 12 5 13 8 26 5 28 -2 2 -6 -3 -10 -12z"/> <path d="M2651 441 c-8 -6 -9 -11 -3 -15 6 -3 14 -1 17 5 9 14 2 20 -14 10z"/> <path d="M1722 420 c14 -22 24 -19 15 5 -4 8 -11 15 -17 15 -6 0 -6 -7 2 -20z"/> <path d="M386 391 c-4 -7 -5 -15 -2 -18 9 -9 19 4 14 18 -4 11 -6 11 -12 0z"/> <path d="M1310 390 c8 -5 26 -10 39 -10 32 0 24 6 -19 14 -25 4 -31 3 -20 -4z"/> <path d="M2595 379 c-4 -6 -5 -12 -2 -15 2 -3 7 2 10 11 7 17 1 20 -8 4z"/> <path d="M335 359 c-18 -11 -24 -19 -14 -19 9 0 24 9 34 20 22 24 19 24 -20 -1z"/> <path d="M1735 361 c-3 -5 -2 -12 3 -15 5 -3 9 1 9 9 0 17 -3 19 -12 6z"/> <path d="M1823 363 c9 -2 23 -2 30 0 6 3 -1 5 -18 5 -16 0 -22 -2 -12 -5z"/> <path d="M2007 353 c-11 -11 -8 -21 9 -27 13 -5 14 -4 6 7 -7 8 -9 17 -5 20 3 4 4 7 1 7 -2 0 -8 -3 -11 -7z"/> <path d="M2285 350 c3 -5 8 -10 11 -10 2 0 4 5 4 10 0 6 -5 10 -11 10 -5 0 -7 -4 -4 -10z"/> <path d="M280 330 c-9 -6 -10 -10 -3 -10 6 0 15 5 18 10 8 12 4 12 -15 0z"/> <path d="M1950 337 c0 -2 14 -16 31 -33 18 -17 28 -22 24 -12 -6 14 -55 55 -55 45z"/> <path d="M2140 336 c0 -2 9 -6 20 -9 11 -3 18 -1 14 4 -5 9 -34 13 -34 5z"/> <path d="M2595 330 c3 -5 11 -10 16 -10 6 0 7 5 4 10 -3 6 -11 10 -16 10 -6 0 -7 -4 -4 -10z"/> <path d="M2837 315 c-4 -11 -10 -27 -13 -35 -3 -8 1 -5 11 8 9 12 15 28 13 34 -3 7 -7 4 -11 -7z"/> <path d="M1246 275 c4 -8 8 -15 10 -15 2 0 4 7 4 15 0 8 -4 15 -10 15 -5 0 -7 -7 -4 -15z"/> <path d="M2133 276 c-39 -14 -57 -32 -23 -22 14 4 32 8 39 10 8 1 17 8 19 14 2 7 2 11 0 11 -1 -1 -17 -7 -35 -13z"/> <path d="M1775 260 c3 -5 11 -10 16 -10 6 0 7 5 4 10 -3 6 -11 10 -16 10 -6 0 -7 -4 -4 -10z"/> <path d="M2056 261 c-3 -5 1 -11 9 -14 9 -4 12 -1 8 9 -6 16 -10 17 -17 5z"/> <path d="M2425 245 c-25 -12 -26 -14 -5 -9 14 4 29 10 35 15 12 12 5 11 -30 -6z"/> <path d="M2280 214 l-25 -15 25 7 c28 7 35 12 29 18 -2 2 -15 -2 -29 -10z"/> <path d="M2350 213 c-26 -10 -64 -43 -49 -43 8 0 28 11 44 25 31 25 31 28 5 18z"/> <path d="M178 203 c7 -3 16 -2 19 1 4 3 -2 6 -13 5 -11 0 -14 -3 -6 -6z"/> <path d="M1440 191 c0 -11 31 -24 39 -16 3 3 -1 10 -9 15 -19 12 -30 12 -30 1z"/> <path d="M1528 193 c-10 -2 -18 -9 -18 -14 0 -6 5 -7 10 -4 11 7 99 -45 120 -71 13 -15 35 -20 26 -5 -4 5 9 6 29 1 47 -11 44 -3 -9 20 -24 10 -63 32 -87 49 -23 17 -45 30 -48 30 -3 -1 -14 -3 -23 -6z"/> <path d="M2028 193 c7 -3 16 -2 19 1 4 3 -2 6 -13 5 -11 0 -14 -3 -6 -6z"/> <path d="M2470 180 c0 -5 7 -7 15 -4 8 4 15 8 15 10 0 2 -7 4 -15 4 -8 0 -15 -4 -15 -10z"/> <path d="M570 139 c8 -43 25 -68 37 -54 5 4 3 10 -4 12 -7 2 -15 20 -19 39 -3 19 -10 36 -14 39 -4 2 -4 -14 0 -36z"/> <path d="M2360 170 c-9 -6 -10 -10 -3 -10 6 0 15 5 18 10 8 12 4 12 -15 0z"/> <path d="M240 160 c-13 -8 -13 -10 1 -10 9 0 22 -7 29 -15 7 -9 15 -13 17 -11 3 3 -3 14 -14 25 -13 14 -23 17 -33 11z"/> <path d="M2258 159 c-2 -6 -17 -11 -33 -11 -39 1 -95 -17 -95 -29 0 -6 9 -7 23 -3 44 14 90 22 106 19 11 -2 17 4 18 16 2 20 -13 26 -19 8z"/> <path d="M2413 155 c-17 -7 -34 -11 -37 -8 -3 4 -6 1 -6 -5 0 -7 2 -12 5 -12 12 0 75 29 75 34 0 8 1 8 -37 -9z"/> <path d="M2506 144 c-4 -9 -4 -19 -1 -22 2 -3 7 3 11 12 4 9 4 19 1 22 -2 3 -7 -3 -11 -12z"/> <path d="M1459 134 c10 -21 61 -40 61 -23 0 5 -10 9 -21 9 -12 0 -28 8 -36 18 -13 15 -13 15 -4 -4z"/> <path d="M2315 140 c-3 -5 1 -10 10 -10 9 0 13 5 10 10 -3 6 -8 10 -10 10 -2 0 -7 -4 -10 -10z"/> <path d="M2726 133 c-6 -14 -5 -15 5 -6 7 7 10 15 7 18 -3 3 -9 -2 -12 -12z"/> <path d="M1342 83 c17 -40 28 -50 28 -26 0 12 -7 29 -16 37 -22 23 -25 20 -12 -11z"/> <path d="M2497 90 c-3 -11 -1 -20 4 -20 5 0 9 9 9 20 0 11 -2 20 -4 20 -2 0 -6 -9 -9 -20z"/> <path d="M1740 89 c0 -5 5 -7 10 -4 6 3 10 8 10 11 0 2 -4 4 -10 4 -5 0 -10 -5 -10 -11z"/> <path d="M2676 92 c-2 -4 4 -9 15 -9 10 -1 19 2 19 8 0 11 -27 12 -34 1z"/> <path d="M1516 64 c5 -19 4 -25 -5 -20 -6 4 -11 2 -11 -3 0 -6 4 -11 9 -11 5 0 17 -7 26 -16 25 -25 26 -12 4 34 -24 48 -32 54 -23 16z"/> <path d="M1684 76 c-9 -10 -5 -13 17 -13 16 0 28 1 27 1 -2 1 -10 7 -18 13 -11 8 -18 8 -26 -1z"/> <path d="M1280 70 c-12 -8 -10 -10 8 -10 13 0 20 4 17 10 -7 12 -6 12 -25 0z"/> <path d="M1320 65 c0 -8 2 -15 4 -15 2 0 6 7 10 15 3 8 1 15 -4 15 -6 0 -10 -7 -10 -15z"/> <path d="M1240 54 c0 -8 5 -12 10 -9 6 4 8 11 5 16 -9 14 -15 11 -15 -7z"/> <path d="M1740 60 c0 -7 6 -10 14 -7 8 3 16 2 18 -2 2 -4 23 -11 47 -14 30 -4 40 -2 33 5 -6 6 -21 12 -34 13 -13 2 -35 6 -50 10 -19 5 -28 3 -28 -5z"/> <path d="M2663 44 c-25 -28 -27 -34 -15 -34 4 0 16 14 25 30 22 37 19 38 -10 4z"/> <path d="M1168 48 c-43 -11 -50 -28 -12 -28 14 0 23 4 19 10 -4 6 7 10 24 10 17 0 31 5 31 10 0 12 -12 11 -62 -2z"/> <path d="M1431 56 c12 -10 60 -16 54 -6 -3 5 -18 10 -32 10 -15 0 -24 -2 -22 -4z"/> <path d="M1616 40 l-28 -18 26 1 c14 1 28 8 31 16 8 20 3 20 -29 1z"/> <path d="M15 31 c45 -18 97 -33 101 -28 6 6 -84 37 -105 36 -11 0 -10 -3 4 -8z"/> <path d="M1890 30 c0 -5 5 -10 10 -10 6 0 10 5 10 10 0 6 -4 10 -10 10 -5 0 -10 -4 -10 -10z"/> <path d="M1965 30 c-37 -7 -37 -7 -9 -9 17 0 52 -4 78 -7 38 -6 46 -4 46 9 0 9 -8 15 -19 14 -11 0 -17 -5 -15 -9 3 -4 -2 -8 -11 -8 -9 0 -13 5 -10 10 7 11 1 11 -60 0z"/> <path d="M2425 29 c-11 -17 1 -21 15 -4 8 9 8 15 2 15 -6 0 -14 -5 -17 -11z"/> <path d="M2131 16 c10 -8 129 -13 123 -5 -3 5 -33 9 -66 9 -34 0 -59 -2 -57 -4z"/> </g> </svg> 
