<?xml version="1.0" standalone="no"?>
<!DOCTYPE svg PUBLIC "-//W3C//DTD SVG 20010904//EN"
 "http://www.w3.org/TR/2001/REC-SVG-20010904/DTD/svg10.dtd">
<svg version="1.0" xmlns="http://www.w3.org/2000/svg"
 width="300.000000pt" height="384.000000pt" viewBox="0 0 300.000000 384.000000"
 preserveAspectRatio="xMidYMid meet">
<metadata>
Created by potrace 1.10, written by Peter Selinger 2001-2011
</metadata>
<g transform="translate(0.000000,384.000000) scale(0.100000,-0.100000)"
fill="#000000" stroke="none">
<path d="M905 3809 c-17 -33 -37 -131 -25 -124 4 2 10 25 13 50 4 25 14 59 22
75 9 17 13 30 11 30 -3 0 -13 -14 -21 -31z"/>
<path d="M1071 3827 c-5 -5 -7 -16 -4 -25 4 -10 2 -13 -5 -8 -6 3 -13 2 -16
-3 -10 -16 26 -5 38 11 7 9 28 21 47 26 l34 10 -43 -1 c-23 -1 -46 -5 -51 -10z"/>
<path d="M1229 3817 c18 -22 10 -29 -35 -33 -19 -1 -41 -9 -47 -17 -7 -8 -25
-22 -42 -31 l-30 -15 33 -1 c17 0 32 4 32 10 0 6 66 9 175 7 96 -1 175 1 175
4 0 10 -28 19 -56 19 -13 0 -24 5 -24 10 0 15 53 12 75 -4 10 -7 26 -11 36 -9
10 3 27 -4 39 -15 13 -12 29 -18 42 -14 11 2 23 -1 28 -7 5 -9 9 -8 14 4 7 20
-40 42 -100 47 -21 2 -45 9 -52 16 -15 14 -92 17 -92 3 0 -4 -11 -6 -25 -3
-14 2 -31 -1 -39 -7 -10 -9 -15 -9 -18 -1 -4 14 -98 -7 -98 -21 0 -5 -4 -9
-10 -9 -20 0 -9 17 21 31 l31 15 -24 19 c-18 16 -20 16 -9 2z"/>
<path d="M1093 3769 c-18 -12 -33 -18 -33 -15 0 3 -8 -2 -19 -11 -10 -10 -42
-31 -70 -48 -29 -16 -61 -38 -73 -47 -12 -10 -29 -18 -40 -18 -10 0 -18 -5
-18 -11 0 -5 -4 -8 -8 -5 -5 3 -21 -2 -36 -9 -26 -14 -28 -13 -21 3 4 11 -4 7
-23 -11 -18 -17 -32 -43 -36 -65 -3 -20 -15 -48 -26 -62 -23 -30 -26 -13 -5
37 8 20 13 38 10 41 -9 9 -27 -53 -29 -98 -1 -33 3 -44 12 -42 8 1 11 -2 7 -8
-3 -6 -11 -8 -16 -5 -5 4 -9 -3 -9 -15 0 -12 -5 -31 -11 -42 -8 -15 -8 -23 1
-32 8 -8 9 -6 4 8 -5 14 -3 17 7 14 15 -5 20 -56 7 -64 -4 -3 -7 -22 -7 -42 1
-23 3 -29 6 -14 2 12 9 22 14 22 5 0 9 9 9 20 0 14 7 20 21 20 11 0 17 4 14
10 -4 7 3 9 22 5 24 -5 25 -5 10 5 -10 7 -24 9 -32 6 -7 -2 -19 2 -25 10 -10
11 -9 14 9 14 11 0 21 5 21 10 0 6 -6 10 -14 8 -8 -2 -15 2 -15 7 -1 6 4 11 9
11 6 1 16 2 23 3 9 1 8 4 -2 10 -8 5 -16 19 -18 30 -1 11 -4 25 -5 30 -2 5 0
9 5 10 4 1 7 -1 7 -4 -1 -10 31 -37 37 -32 3 3 -2 13 -11 22 -16 17 -23 61 -8
51 5 -3 9 1 9 9 0 8 -5 15 -11 15 -6 0 -3 5 7 11 10 6 25 8 33 5 9 -3 23 2 32
11 16 15 15 16 -12 9 l-28 -7 23 29 c13 16 28 27 32 25 4 -3 3 -11 -4 -19 -7
-9 5 -6 29 7 23 12 38 27 35 32 -4 6 2 8 15 5 12 -4 20 -3 17 2 -2 4 9 10 26
14 17 3 28 10 24 16 -3 5 9 13 27 18 18 5 32 14 30 21 -2 9 13 10 55 6 l58 -6
-33 21 c-39 24 -38 37 8 68 42 28 26 29 -17 1z m-305 -206 c-10 -13 -13 -13
-19 4 -7 16 -8 16 -8 -3 -1 -19 -31 -44 -31 -26 0 22 31 50 50 45 17 -4 18 -8
8 -20z"/>
<path d="M1526 3721 c-7 -10 72 -37 81 -28 3 4 0 7 -8 7 -8 0 -26 7 -41 14
-15 8 -30 11 -32 7z"/>
<path d="M1309 3705 c81 -20 155 -29 147 -17 -8 13 -57 23 -136 27 l-65 4 54
-14z"/>
<path d="M1215 3679 c-3 -5 -20 -13 -38 -18 -25 -7 -27 -9 -9 -10 12 -1 22 -5
22 -11 0 -5 7 -7 15 -4 8 4 13 10 10 14 -9 14 85 24 98 11 8 -8 1 -11 -28 -11
-25 0 -49 -8 -65 -21 -20 -17 -21 -20 -5 -14 49 17 97 17 141 0 25 -9 48 -15
51 -12 3 4 -7 9 -22 13 -20 5 -23 9 -13 15 9 6 7 9 -9 9 -12 0 -29 10 -37 22
-11 16 -27 22 -61 24 -24 1 -47 -2 -50 -7z"/>
<path d="M1550 3687 c0 -3 15 -14 33 -26 18 -12 25 -21 17 -21 -9 0 -22 6 -29
13 -10 10 -11 8 -5 -6 5 -15 14 -17 39 -13 31 6 64 -12 49 -27 -4 -3 5 -9 20
-13 24 -6 31 -15 27 -37 -1 -5 3 -6 9 -2 5 3 10 2 10 -2 0 -5 7 -18 16 -29 8
-10 13 -13 9 -6 -3 6 -1 12 5 12 6 0 9 -8 6 -18 -4 -12 4 -28 24 -47 43 -41
103 -145 84 -145 -3 0 -12 16 -20 36 -8 20 -18 34 -21 30 -3 -3 -18 12 -34 33
-15 22 -33 42 -40 47 -7 4 -5 -3 4 -15 8 -13 14 -28 13 -35 -2 -6 -1 -8 2 -3
4 9 59 -57 75 -90 5 -12 14 -20 20 -16 6 3 7 2 4 -4 -4 -6 2 -29 13 -51 22
-45 26 -67 10 -57 -5 3 -10 -1 -10 -10 0 -11 -7 -14 -24 -11 -19 3 -23 1 -19
-15 3 -10 1 -19 -5 -19 -6 0 -8 -9 -5 -21 4 -14 12 -19 24 -16 16 4 19 -1 19
-29 0 -19 -4 -34 -8 -34 -13 0 -6 -104 8 -130 6 -12 13 -20 14 -18 2 1 6 55 9
118 3 63 11 137 17 164 10 48 6 122 -9 141 -5 6 -11 23 -15 39 -4 17 -16 42
-27 57 -10 15 -19 32 -19 37 0 6 -13 21 -28 34 -15 12 -29 28 -30 33 -2 6 -16
25 -32 43 -17 19 -28 38 -25 42 6 9 -60 70 -78 71 -29 2 -54 6 -74 13 -13 4
-23 5 -23 3z"/>
<path d="M1480 3665 c11 -14 10 -14 -14 -5 -39 14 -53 12 -30 -5 10 -8 39 -14
64 -14 39 0 43 1 28 13 -10 7 -15 16 -11 19 3 4 -6 7 -22 7 -23 0 -26 -2 -15
-15z"/>
<path d="M1368 3655 c18 -8 31 -19 28 -24 -6 -8 34 -24 42 -16 6 6 -72 55 -88
55 -8 -1 0 -7 18 -15z"/>
<path d="M1465 3610 c12 -5 14 -9 6 -9 -34 -2 5 -16 44 -16 24 0 41 3 38 8 -4
7 1 9 29 11 6 1 13 -9 14 -21 2 -13 -1 -23 -6 -23 -6 0 -10 3 -10 8 0 4 -14 8
-32 9 -38 3 -26 -15 15 -23 15 -2 46 -18 71 -34 25 -17 48 -30 53 -29 20 3 34
-2 28 -10 -3 -5 -1 -12 3 -15 5 -3 9 6 8 21 -1 27 -5 30 -67 57 -39 17 -81 56
-46 43 27 -10 20 8 -9 21 -18 9 -31 9 -45 1 -15 -7 -29 -7 -51 0 -38 13 -73
14 -43 1z m221 -101 c11 -19 -13 -8 -46 21 l-35 30 38 -21 c20 -11 40 -25 43
-30z"/>
<path d="M1275 3570 c-16 -3 -25 -8 -20 -12 14 -8 120 -3 136 8 11 6 10 3 -1
-12 -8 -10 -10 -16 -6 -12 5 4 14 4 20 -1 36 -27 59 -16 37 18 -10 15 -112 22
-166 11z"/>
<path d="M1485 3547 c10 -8 15 -19 11 -25 -7 -12 10 -17 45 -14 9 1 21 -10 28
-24 9 -21 16 -25 35 -20 17 4 26 1 30 -10 3 -9 13 -14 20 -11 8 3 17 -1 20
-10 5 -11 2 -13 -11 -8 -39 15 -46 15 -16 -1 17 -9 34 -25 36 -35 3 -11 11
-19 17 -19 10 0 10 3 1 14 -7 8 -14 24 -16 37 -3 12 -8 26 -12 29 -20 17 -144
79 -137 69 4 -7 1 -10 -7 -7 -8 3 -14 10 -14 17 0 12 -23 31 -39 31 -6 0 -2
-6 9 -13z"/>
<path d="M1045 3420 c-11 -5 -14 -9 -7 -9 6 -1 12 -6 12 -11 0 -7 -7 -7 -20 0
-12 6 -30 8 -43 4 -12 -5 -26 -8 -30 -9 -4 0 -12 -7 -17 -15 -5 -8 -10 -11
-10 -6 0 6 -7 1 -15 -10 -8 -11 -15 -14 -15 -6 0 6 -5 12 -11 12 -5 0 -7 -4
-4 -10 3 -5 1 -10 -4 -10 -6 0 -11 -4 -11 -9 0 -14 34 -8 46 9 7 7 28 14 48
14 26 0 35 4 32 13 -4 9 3 13 20 13 14 0 22 -4 19 -10 -9 -15 11 -12 24 3 6 8
8 17 4 21 -4 4 -1 11 7 16 18 12 2 12 -25 0z"/>
<path d="M1312 3423 c-6 -2 -10 -9 -6 -14 7 -12 -13 -12 -36 1 -15 8 -17 6
-13 -10 5 -19 20 -20 168 -10 6 0 3 5 -5 10 -12 8 -11 10 8 10 12 0 22 3 22 8
0 10 -102 8 -119 -2 -10 -6 -12 -5 -7 2 8 13 7 13 -12 5z"/>
<path d="M1152 3400 c9 -6 15 -17 12 -25 -5 -11 1 -15 20 -15 19 0 26 5 26 20
0 11 -6 20 -12 21 -7 0 -24 2 -38 5 -21 3 -22 2 -8 -6z"/>
<path d="M1490 3390 c-13 -8 -8 -25 8 -25 11 -1 66 -39 78 -54 6 -8 16 -11 23
-7 8 5 -1 15 -26 28 -48 26 -74 48 -67 59 7 11 3 11 -16 -1z"/>
<path d="M1630 3370 c0 -5 5 -10 11 -10 7 0 22 -11 35 -26 13 -14 24 -20 24
-14 0 13 -49 60 -61 60 -5 0 -9 -4 -9 -10z"/>
<path d="M822 3313 c-18 -7 -37 -25 -42 -39 -7 -18 -15 -24 -26 -20 -8 3 -25
-3 -37 -16 -12 -11 -16 -18 -9 -13 11 6 11 3 1 -13 -7 -12 -16 -19 -20 -16 -7
4 -19 -20 -19 -39 0 -9 2 -9 8 0 4 7 6 -20 5 -59 -3 -54 1 -81 16 -112 36 -77
36 -84 -1 -94 -47 -12 -48 -42 -5 -95 36 -44 44 -67 56 -157 5 -30 9 -42 10
-27 l1 28 33 -34 c33 -35 87 -57 143 -57 52 0 136 30 166 61 27 26 29 27 23 6
-4 -12 -17 -37 -29 -55 -22 -31 -25 -82 -6 -82 4 0 5 11 2 25 -2 15 3 36 14
52 20 30 61 163 70 229 7 46 37 71 74 61 18 -5 19 -3 8 10 -10 13 -9 15 7 12
16 -4 20 -13 21 -50 1 -44 73 -226 74 -186 0 16 3 16 29 -4 60 -44 204 -43
278 2 40 25 69 86 88 184 8 42 18 81 21 86 3 5 18 2 35 -6 29 -15 29 -16 29
-102 0 -91 13 -109 15 -21 1 31 6 53 13 56 7 2 12 15 12 28 0 14 -4 23 -9 19
-14 -8 -51 44 -51 71 0 20 -6 23 -67 30 -154 19 -375 2 -358 -26 4 -6 -1 -7
-11 -3 -12 4 -15 3 -10 -5 4 -7 1 -15 -8 -18 -9 -3 -16 -10 -16 -15 0 -6 9 -5
21 1 36 20 113 40 152 40 21 0 37 5 37 11 0 19 107 5 138 -18 26 -20 27 -24
27 -109 -1 -72 -5 -97 -23 -131 -28 -54 -54 -71 -129 -85 -129 -24 -205 15
-243 124 -30 85 -24 134 20 178 23 23 16 25 -20 5 -15 -9 -53 -14 -96 -15
l-72 0 4 -55 c2 -30 2 -55 1 -55 -14 0 -74 25 -80 34 -5 7 -7 3 -5 -9 2 -12
15 -23 36 -29 37 -10 37 -11 16 -88 -27 -95 -93 -138 -212 -138 -29 0 -66 7
-82 15 -36 18 -72 87 -90 167 -16 73 -3 111 49 138 47 24 145 43 196 37 33 -3
30 -4 -17 -5 -60 -2 -73 -13 -37 -33 17 -9 24 -8 31 2 7 11 11 11 14 2 4 -8
13 -9 29 -3 15 6 27 6 30 -1 4 -5 11 -7 16 -4 5 3 24 2 44 -4 25 -7 34 -6 32
2 -4 21 -37 38 -60 32 -16 -5 -18 -4 -8 3 11 8 2 12 -32 17 -53 8 -147 0 -234
-20 -32 -7 -59 -13 -60 -11 -1 1 2 31 7 66 5 36 11 90 15 120 6 63 36 170 48
170 4 0 7 5 7 11 0 6 10 19 23 29 29 24 20 30 -21 13z m-77 -203 c-1 -11 -4
-23 -8 -26 -4 -4 -7 -19 -7 -34 0 -14 -7 -35 -16 -46 -14 -18 -15 -18 -4 5 7
12 9 32 6 44 -3 11 2 33 10 49 17 33 21 35 19 8z m1033 -158 c12 10 11 7 -3
-15 -16 -25 -18 -26 -30 -10 -10 13 -10 20 -2 25 7 4 14 3 15 -3 3 -6 10 -5
20 3z"/>
<path d="M1728 3285 c-3 -4 -4 -27 -3 -53 4 -43 3 -45 -8 -19 -6 15 -17 27
-24 27 -7 0 -17 9 -23 21 -7 11 -14 19 -16 16 -9 -9 67 -127 81 -127 8 0 15
-5 15 -10 0 -6 14 -9 31 -8 30 2 31 3 25 43 -3 22 -7 48 -8 57 -1 9 -6 15 -9
12 -4 -2 -6 -27 -3 -54 2 -29 0 -50 -6 -50 -6 0 -10 17 -10 37 0 32 -2 35 -13
19 -11 -15 -12 -12 -9 23 4 38 -8 78 -20 66z"/>
<path d="M575 3140 l-50 -7 45 -1 c25 -1 52 3 60 8 8 5 11 9 5 8 -5 -1 -32 -4
-60 -8z"/>
<path d="M1382 2980 c-32 -7 -61 -26 -51 -33 2 -2 29 7 59 20 56 23 53 27 -8
13z"/>
<path d="M880 2900 c0 -6 -19 -19 -42 -29 -53 -22 -38 -32 24 -14 36 11 46 18
45 33 -1 20 -27 29 -27 10z"/>
<path d="M1466 2900 c-31 -10 -66 -38 -66 -53 0 -6 -8 -19 -17 -30 -13 -15
-14 -18 -3 -12 13 8 13 7 1 -8 -12 -15 -10 -17 17 -17 21 0 31 6 35 20 3 11
10 20 15 20 5 0 12 -9 15 -20 3 -12 14 -20 25 -20 24 0 37 16 22 25 -5 3 -10
12 -10 18 1 7 9 2 19 -10 24 -29 41 -29 41 -2 0 14 5 19 18 17 9 -2 16 -9 15
-14 -1 -5 14 -8 33 -6 47 6 43 17 -10 31 -62 15 -127 14 -169 -4 -46 -19 -46
-19 -40 5 7 25 79 60 124 60 19 0 51 -9 72 -19 20 -10 37 -15 37 -11 0 13 -78
40 -113 39 -17 0 -45 -5 -61 -9z"/>
<path d="M936 2850 c-31 -10 -76 -47 -76 -64 0 -5 12 2 28 16 39 36 94 53 134
39 32 -11 44 -9 35 6 -8 12 -85 14 -121 3z"/>
<path d="M1935 2840 c-4 -12 -2 -26 3 -33 6 -7 12 -25 14 -41 4 -35 28 -48 28
-16 0 33 -21 110 -31 110 -4 0 -11 -9 -14 -20z"/>
<path d="M970 2797 c-3 -3 -18 -8 -34 -11 -29 -5 -66 -32 -66 -48 0 -4 16 -8
37 -8 34 0 35 1 20 18 -15 17 -15 18 9 17 14 0 29 -7 34 -15 6 -11 20 -15 49
-12 33 3 41 8 41 24 0 11 5 18 13 15 6 -2 11 -10 10 -16 -3 -12 7 -14 32 -5
14 6 14 8 -4 20 -20 14 -132 31 -141 21z"/>
<path d="M1380 2746 c0 -9 110 -36 147 -36 21 0 46 7 57 15 16 12 10 13 -51 8
-47 -4 -72 -2 -77 6 -7 10 -76 17 -76 7z"/>
<path d="M1070 2708 c-49 -21 -133 -30 -167 -17 -13 5 -23 5 -23 1 0 -42 153
-44 197 -2 11 9 25 20 33 23 13 5 13 5 0 6 -8 0 -26 -5 -40 -11z"/>
<path d="M1863 2699 c-9 -9 -7 -18 8 -38 22 -30 26 -56 13 -86 -8 -19 -7 -19
10 -2 21 20 24 69 8 110 -12 29 -22 33 -39 16z"/>
<path d="M1842 2599 c2 -41 3 -66 1 -56 -5 19 -25 24 -22 5 1 -7 -1 -21 -6
-31 -11 -26 3 -34 21 -11 14 18 15 16 10 -22 -4 -36 -2 -43 19 -54 14 -7 28
-11 31 -7 3 3 -4 10 -15 17 -19 10 -21 20 -21 115 0 67 -4 106 -11 111 -9 5
-11 -13 -7 -67z"/>
<path d="M1960 2599 c0 -6 -9 -22 -20 -36 -11 -15 -18 -28 -15 -31 6 -6 36 32
47 60 4 10 3 18 -2 18 -6 0 -10 -5 -10 -11z"/>
<path d="M766 2585 c-11 -29 -7 -77 5 -69 9 5 10 -1 5 -20 -3 -14 -2 -35 3
-45 6 -10 11 -38 12 -62 2 -24 6 -51 10 -59 4 -8 15 -42 24 -75 10 -33 35 -91
57 -128 22 -38 37 -71 34 -74 -3 -3 -17 -5 -31 -5 -14 0 -25 -6 -25 -14 0 -7
-7 -20 -16 -28 -8 -9 -12 -16 -8 -16 4 0 -1 -9 -11 -20 -10 -11 -24 -20 -30
-20 -7 0 -20 -11 -28 -24 -16 -23 -15 -23 8 -12 13 6 21 14 19 18 -3 5 1 8 8
8 7 0 26 14 42 30 16 17 31 29 33 26 2 -2 19 12 36 31 l32 34 48 -43 c47 -44
48 -45 62 -139 16 -110 27 -143 71 -224 34 -61 102 -220 124 -288 12 -39 85
-121 100 -112 4 2 34 37 66 77 33 40 85 100 116 133 32 34 72 81 89 106 17 24
42 55 55 69 16 18 35 71 64 185 23 88 48 180 57 205 8 25 19 99 24 165 4 66
11 143 13 170 l6 50 -13 -55 c-37 -153 -88 -237 -204 -331 -60 -49 -169 -92
-148 -60 2 5 -7 7 -21 5 -19 -2 -24 1 -20 12 4 9 2 12 -5 8 -6 -3 -8 -15 -5
-27 3 -14 2 -17 -6 -9 -6 6 -17 8 -26 5 -11 -5 -13 -2 -8 8 4 8 -2 3 -14 -11
-14 -16 -23 -21 -26 -13 -7 16 -34 5 -34 -13 0 -9 12 -14 36 -14 29 0 35 3 30
16 -5 12 -2 15 10 10 8 -3 18 -6 20 -6 3 0 3 -4 0 -9 -4 -5 3 -7 14 -4 11 3
20 10 20 15 0 7 5 6 13 0 9 -8 20 -7 40 3 15 8 27 12 27 9 0 -3 24 7 53 23 51
28 186 149 187 168 0 6 12 28 26 50 l26 40 -6 -55 c-3 -30 -24 -109 -46 -175
-22 -66 -40 -132 -40 -146 0 -50 -51 -188 -93 -251 -48 -73 -155 -188 -174
-188 -7 0 -12 -3 -12 -7 3 -20 -3 -34 -26 -57 -14 -14 -25 -29 -25 -33 0 -9
-43 -49 -48 -45 -30 20 -57 62 -80 127 -16 44 -39 104 -52 132 -12 29 -20 62
-17 73 3 11 1 18 -4 14 -5 -3 -9 3 -9 14 0 10 -10 29 -22 41 -17 19 -98 251
-98 282 0 4 19 -3 42 -14 46 -23 198 -35 198 -15 0 6 -6 8 -14 5 -7 -3 -19 0
-25 6 -8 8 -11 8 -11 -2 0 -7 -5 -9 -10 -6 -8 5 -8 11 0 20 7 8 7 15 1 19 -5
4 -12 -2 -15 -12 -5 -14 -13 -17 -36 -14 -17 2 -30 8 -30 13 0 5 -11 7 -23 3
-18 -4 -31 2 -53 25 -18 19 -31 26 -35 19 -4 -7 -11 -2 -19 11 -10 19 -8 26 7
44 l18 21 -28 -18 c-39 -24 -43 -15 -10 19 20 20 23 26 10 22 -10 -4 -28 -7
-40 -8 -21 0 -21 -1 -2 -9 16 -7 11 -9 -21 -9 -31 -1 -44 4 -49 17 -14 31 -15
52 -3 52 9 0 9 3 0 12 -6 6 -8 17 -3 27 10 18 -3 61 -19 61 -5 0 -10 5 -10 11
0 5 5 7 10 4 6 -3 10 -1 10 4 0 6 -7 11 -16 11 -8 0 -12 5 -9 10 9 14 -19 12
-34 -2 -11 -11 -11 -9 0 8 11 19 10 24 -4 39 -20 19 -22 26 -42 160 -9 54 -17
101 -19 102 -2 2 -6 -3 -10 -12z m95 -327 c1 -7 1 -16 0 -20 0 -5 6 -8 14 -8
12 0 15 -9 13 -36 -2 -32 -4 -34 -15 -18 -8 10 -11 24 -9 31 3 6 1 13 -3 15
-13 5 -24 48 -12 48 6 0 12 -6 12 -12z"/>
<path d="M1280 2505 c0 -9 9 -15 25 -15 13 0 28 -7 33 -17 6 -10 16 -14 26
-10 15 6 14 10 -10 32 -30 28 -74 34 -74 10z"/>
<path d="M1135 2494 c-19 -19 -15 -38 10 -42 11 -3 15 0 10 8 -4 7 1 13 13 17
13 3 18 11 15 19 -7 19 -28 18 -48 -2z"/>
<path d="M1278 2438 c-34 -12 -41 -58 -9 -58 25 0 32 22 13 36 -12 9 -10 10 9
8 13 -1 26 -3 28 -3 2 -1 -2 -7 -8 -15 -16 -19 5 -32 24 -16 36 30 -7 65 -57
48z"/>
<path d="M1145 2416 c-14 -14 -25 -29 -25 -34 0 -5 -11 -7 -25 -4 -19 3 -33
-3 -55 -27 -17 -17 -30 -25 -30 -18 -1 7 -6 5 -14 -5 -8 -12 -12 -44 -11 -97
1 -44 -1 -78 -5 -76 -3 2 -12 0 -20 -6 -13 -7 -12 -9 3 -9 9 0 17 -7 17 -15 0
-18 5 -18 31 -5 16 9 18 14 7 33 -18 32 -18 47 -3 78 16 30 43 36 200 43 50 2
138 6 197 10 99 6 108 5 118 -13 5 -11 10 -29 10 -40 0 -12 5 -21 10 -21 6 0
10 -9 10 -19 0 -11 5 -23 10 -26 6 -3 10 -1 10 5 0 6 6 8 13 5 6 -4 5 -1 -3 7
-27 24 -40 62 -37 113 2 50 2 50 -37 63 -50 16 -84 10 -38 -8 17 -6 32 -16 32
-20 0 -19 -52 -19 -100 0 -56 22 -107 26 -130 9 -11 -7 -4 -9 25 -4 26 4 53 1
74 -8 l34 -15 -61 -7 c-130 -15 -251 -5 -194 16 11 4 36 4 54 -2 43 -12 43
-12 27 7 -17 21 -92 14 -119 -11 -19 -17 -90 -38 -90 -26 0 3 5 13 10 21 7 11
10 11 10 2 0 -7 5 -10 10 -7 6 3 10 15 10 26 0 12 5 19 13 16 6 -2 32 5 56 15
24 10 52 16 62 13 26 -9 33 12 12 38 -26 31 -40 31 -68 3z"/>
<path d="M1365 2188 c-22 -5 -87 -7 -145 -4 -94 5 -103 4 -86 -9 11 -8 27 -15
37 -15 9 0 22 -7 29 -15 18 -22 109 -20 140 3 14 9 41 25 60 34 39 18 25 21
-35 6z"/>
<path d="M1965 2135 c5 -11 13 -44 19 -72 11 -52 36 -94 36 -62 0 28 -27 106
-45 130 -14 19 -16 20 -10 4z"/>
<path d="M1585 2130 c-4 -6 -15 -8 -26 -5 -24 8 -24 -5 -1 -31 9 -10 23 -30
29 -44 11 -24 12 -24 12 -3 1 29 -9 54 -20 47 -5 -3 -6 2 -3 10 6 16 17 20 43
17 7 -2 10 2 6 8 -8 14 -32 14 -40 1z"/>
<path d="M1263 2053 c-17 -35 -16 -40 3 -47 8 -3 12 -2 9 3 -3 5 -1 12 4 16 6
3 8 12 4 20 -3 8 0 15 7 15 6 0 8 5 5 10 -10 16 -19 11 -32 -17z"/>
<path d="M1531 2037 c-7 -19 -15 -24 -30 -20 -13 3 -21 1 -21 -8 0 -7 3 -9 7
-6 3 4 12 2 20 -4 16 -14 43 5 43 30 0 14 2 14 10 1 5 -8 11 -12 15 -9 3 3 -4
14 -15 24 -19 17 -20 17 -29 -8z"/>
<path d="M800 2010 c-6 -12 -10 -29 -8 -38 3 -12 8 -8 20 15 18 36 6 57 -12
23z"/>
<path d="M731 1961 c-30 -28 -42 -49 -21 -36 6 3 10 0 10 -7 0 -7 6 -3 13 8 6
12 18 31 25 43 17 29 10 26 -27 -8z"/>
<path d="M2010 1948 c0 -7 10 -29 22 -48 12 -19 23 -42 24 -50 0 -8 10 -42 22
-75 11 -33 25 -80 31 -105 l10 -45 -4 60 c-5 68 -24 135 -63 217 -26 55 -42
73 -42 46z"/>
<path d="M742 1871 c-8 -4 -13 -11 -13 -15 3 -20 -2 -26 -24 -32 -37 -9 -111
-139 -176 -309 -24 -64 -23 -82 1 -30 l19 40 -5 -40 c-3 -22 -8 -48 -11 -57
-2 -10 0 -18 5 -18 12 0 22 35 22 78 0 53 21 122 56 184 59 105 91 138 73 76
-12 -43 -11 -46 5 -23 7 11 23 47 35 80 13 33 28 63 34 67 7 4 8 8 2 8 -5 0
-16 -4 -23 -9z"/>
<path d="M184 1792 c-22 -8 -74 -46 -74 -56 0 -4 11 -4 25 0 18 4 25 2 25 -9
0 -18 -26 -41 -39 -33 -5 3 -11 0 -14 -8 -6 -16 22 -31 34 -19 9 10 49 82 49
88 0 3 -9 5 -21 5 -11 0 -17 5 -14 10 4 7 13 7 25 0 15 -8 21 -6 30 10 11 21
8 22 -26 12z"/>
<path d="M700 1701 c0 -5 6 -14 13 -20 11 -8 18 -6 32 9 18 20 17 20 -13 20
-18 0 -32 -4 -32 -9z"/>
<path d="M812 1669 c0 -19 5 -30 18 -34 10 -3 21 -19 25 -35 6 -27 28 -45 44
-36 17 11 146 -92 184 -147 40 -58 61 -73 55 -37 -7 41 -91 127 -158 161 -86
43 -110 65 -110 104 0 25 -6 33 -29 41 -27 11 -28 10 -29 -17z"/>
<path d="M2010 1692 c0 -4 4 -12 9 -17 6 -6 12 -37 14 -70 l3 -60 2 73 c2 68
3 72 21 63 18 -10 33 -68 35 -138 1 -12 4 -25 9 -29 11 -11 9 58 -4 116 -9 40
-16 53 -36 61 -30 11 -53 12 -53 1z"/>
<path d="M1890 1676 c-60 -13 -100 -31 -100 -46 0 -14 -146 -160 -159 -160 -6
0 -11 -9 -11 -21 0 -11 -4 -18 -8 -15 -5 3 -16 -10 -24 -28 -17 -35 -46 -61
-118 -105 -37 -23 -45 -32 -44 -57 1 -28 18 -46 20 -21 1 6 2 19 3 27 1 8 29
35 62 60 33 25 69 60 80 78 12 17 25 30 30 26 5 -3 9 2 9 10 0 17 74 90 120
118 17 10 34 26 37 36 11 28 44 52 73 52 14 0 32 6 39 13 11 10 12 9 6 -3 -6
-12 -5 -13 6 -2 7 6 21 12 31 12 10 0 18 5 18 10 0 6 6 10 14 10 8 0 18 5 21
10 8 13 -36 12 -105 -4z"/>
<path d="M698 1570 c-14 -38 -22 -70 -18 -70 4 0 13 15 20 33 7 17 16 41 20
52 16 40 19 55 11 55 -5 0 -20 -31 -33 -70z"/>
<path d="M285 1430 c-3 -5 -1 -10 4 -10 6 0 24 -26 40 -57 17 -32 30 -54 31
-50 0 10 -59 127 -65 127 -2 0 -7 -4 -10 -10z"/>
<path d="M1177 1343 c24 -37 114 -133 124 -133 22 0 4 27 -61 91 -74 74 -91
85 -63 42z"/>
<path d="M531 1320 c-1 -25 -6 -63 -11 -85 -5 -22 -5 -44 0 -49 10 -10 24 106
17 149 -3 23 -4 20 -6 -15z"/>
<path d="M2719 1283 c-91 -234 -159 -476 -159 -565 0 -24 -5 -50 -11 -58 -8
-12 -9 -8 -7 14 2 17 -2 31 -10 34 -10 3 -12 -9 -11 -49 2 -30 -1 -67 -5 -84
-5 -16 10 7 33 52 34 68 40 87 31 103 -7 14 -8 26 0 39 5 11 10 32 10 48 0 46
34 168 93 336 31 86 54 157 51 157 -2 0 -9 -12 -15 -27z"/>
<path d="M342 1285 c18 -54 52 -135 55 -132 5 5 -33 107 -48 127 -6 8 -9 11
-7 5z"/>
<path d="M50 1255 c0 -4 9 -19 20 -33 12 -15 47 -67 80 -117 60 -92 99 -145
100 -134 0 11 -31 69 -41 75 -6 3 -37 46 -70 96 -57 86 -89 127 -89 113z"/>
<path d="M240 1150 c0 -12 33 -61 68 -100 48 -54 14 8 -45 83 -13 16 -23 24
-23 17z"/>
<path d="M434 1017 c2 -38 7 -71 11 -75 9 -9 3 100 -6 123 -5 12 -7 -7 -5 -48z"/>
<path d="M2247 1063 c-13 -13 -7 -24 11 -21 11 2 26 -3 35 -11 23 -19 21 2 -1
22 -20 18 -34 21 -45 10z"/>
<path d="M496 1018 c-7 -44 -5 -68 6 -68 4 0 8 23 8 50 0 57 -7 65 -14 18z"/>
<path d="M2732 953 c-70 -150 -107 -258 -103 -301 2 -28 21 1 21 34 0 19 5 34
12 34 6 0 9 3 6 6 -7 6 48 162 86 248 15 32 25 60 23 62 -2 2 -22 -35 -45 -83z"/>
<path d="M2550 985 c-11 -26 -19 -50 -16 -52 2 -3 14 17 25 43 12 26 19 49 16
52 -2 3 -14 -17 -25 -43z"/>
<path d="M2506 869 c2 -67 8 -127 14 -133 12 -12 2 234 -10 247 -5 5 -6 -46
-4 -114z"/>
<path d="M2315 938 c10 -24 11 -38 4 -40 -6 -2 16 -32 49 -68 37 -40 65 -79
72 -104 7 -23 18 -52 26 -66 l14 -25 -4 32 c-10 75 -65 177 -151 278 l-26 30
16 -37z"/>
<path d="M446 902 c-5 -15 -2 -31 8 -47 35 -53 12 -47 -49 13 -60 58 -41 29
35 -53 43 -47 51 -60 38 -63 -10 -2 -18 -7 -18 -11 0 -4 -25 -13 -55 -20 -30
-7 -55 -17 -55 -22 0 -12 12 -11 46 1 29 11 84 4 84 -10 0 -5 -16 -24 -36 -43
-21 -19 -34 -39 -30 -46 9 -14 43 -15 51 -1 3 6 1 10 -4 10 -6 0 -11 5 -11 12
0 8 7 5 18 -6 16 -17 16 -18 -13 -42 -35 -28 -50 -29 -100 -8 -52 21 -33 -1
25 -31 57 -29 60 -30 60 -11 0 14 28 42 34 35 2 -2 6 -16 10 -31 5 -23 -1 -33
-38 -68 -42 -40 -44 -43 -28 -61 9 -11 18 -15 20 -9 2 5 8 10 13 10 6 0 6 -8
-1 -19 -5 -11 -10 -29 -10 -40 0 -10 -4 -21 -8 -23 -4 -1 -5 -16 -1 -33 5 -23
7 -25 8 -8 0 13 15 67 33 120 17 54 30 103 28 108 -1 6 -4 71 -5 145 -2 98 -8
154 -22 205 -16 58 -21 66 -27 47z"/>
<path d="M0 851 c0 -12 59 -101 68 -101 2 0 -7 17 -19 38 -38 63 -49 77 -49
63z"/>
<path d="M2605 765 c-9 -20 -14 -40 -11 -43 3 -3 13 12 21 33 9 20 14 40 11
43 -3 3 -13 -12 -21 -33z"/>
<path d="M2380 751 c0 -32 56 -163 89 -210 11 -15 23 -40 27 -57 3 -16 12 -38
20 -50 21 -34 48 -138 37 -141 -7 -3 -6 -18 3 -42 13 -38 9 -81 -7 -81 -4 0 3
-19 16 -43 14 -23 25 -50 25 -59 0 -10 4 -18 9 -18 17 0 21 31 6 54 -10 15
-17 55 -19 113 -2 53 -11 105 -21 128 -9 22 -20 66 -25 98 -7 45 -17 67 -48
105 -48 58 -62 84 -62 115 0 24 -36 117 -45 117 -3 0 -5 -13 -5 -29z"/>
<path d="M247 473 c-4 -3 -24 -7 -45 -8 -126 -7 -129 -7 -97 -14 40 -8 154 4
168 18 8 8 7 11 -4 11 -9 0 -19 -3 -22 -7z"/>
<path d="M1893 449 c-20 -13 -34 -16 -38 -9 -3 5 -11 10 -18 10 -6 0 -1 -7 12
-16 17 -12 26 -13 34 -5 14 14 30 14 21 0 -4 -7 -1 -10 7 -7 8 3 22 -1 32 -10
11 -10 17 -11 17 -3 0 6 -11 16 -25 23 -13 6 -22 15 -19 20 3 5 13 3 22 -4 15
-12 16 -11 3 5 -7 9 -14 17 -15 17 0 0 -15 -9 -33 -21z"/>
<path d="M397 190 c-16 -32 -46 -75 -68 -94 -38 -35 -42 -36 -117 -36 -42 0
-84 -5 -92 -10 -12 -8 -9 -10 11 -10 15 0 38 -9 53 -21 20 -16 26 -17 26 -6 0
14 26 27 60 31 23 3 62 26 83 50 21 24 81 145 75 151 -2 2 -16 -23 -31 -55z"/>
<path d="M1527 194 c-10 -10 124 -94 150 -94 13 0 22 -4 19 -8 -3 -5 1 -9 9
-9 8 0 12 4 9 9 -3 4 1 8 8 8 7 1 -8 9 -34 19 -26 10 -64 33 -85 50 -36 29
-62 38 -76 25z"/>
<path d="M2249 156 c-2 -3 -17 -7 -33 -10 -16 -3 -31 -8 -35 -12 -8 -9 70 6
89 17 13 7 13 8 -1 9 -9 0 -18 -2 -20 -4z"/>
<path d="M1340 88 c0 -8 7 -23 15 -34 14 -19 14 -19 15 2 0 12 -7 27 -15 34
-12 10 -15 10 -15 -2z"/>
<path d="M1741 78 c-1 -25 3 -27 47 -33 26 -4 56 -9 67 -12 16 -4 18 -3 7 8
-7 7 -20 14 -30 15 -9 0 -29 1 -43 2 -16 1 -30 11 -37 25 -11 22 -11 22 -11
-5z"/>
<path d="M1517 64 c5 -15 0 -16 -43 -11 l-49 6 48 -14 c27 -7 57 -21 68 -31
19 -17 19 -17 9 7 -6 13 -13 32 -16 42 -4 9 -10 17 -15 17 -5 0 -6 -7 -2 -16z"/>
<path d="M1975 30 c-3 -5 0 -11 7 -11 66 -7 92 -7 111 1 19 8 16 9 -15 8 -20
-1 -40 1 -44 5 -11 10 -52 9 -59 -3z"/>
<path d="M2121 16 c2 -2 45 -6 94 -9 52 -3 79 -2 65 3 -25 8 -167 14 -159 6z"/>
</g>
</svg>
